<svg width="700" height="700" viewBox="0 0 700 700" fill="none" xmlns="http://www.w3.org/2000/svg">
<circle cx="350" cy="350" r="350" fill="white"/>
<path d="M165.04 353.28L150.96 345.28L240.88 179.68C244.441 173.931 249.911 169.618 256.332 167.497C262.753 165.376 269.716 165.583 276 168.08C280.087 169.704 283.744 172.25 286.685 175.519C289.627 178.789 291.774 182.693 292.958 186.928C294.143 191.164 294.334 195.615 293.515 199.936C292.697 204.258 290.891 208.331 288.24 211.84L280.24 222.96L267.44 213.36L275.44 202.24C276.613 200.7 277.412 198.908 277.773 197.005C278.134 195.103 278.047 193.143 277.52 191.28C276.877 188.913 275.558 186.785 273.726 185.154C271.894 183.524 269.627 182.461 267.202 182.097C264.777 181.732 262.298 182.081 260.067 183.101C257.837 184.12 255.951 185.767 254.64 187.84L165.04 353.28Z" fill="#A0A8B2"/>
<path d="M534.96 353.28L445.04 187.28C444.119 185.787 442.9 184.5 441.458 183.501C440.016 182.502 438.383 181.812 436.661 181.474C434.94 181.137 433.167 181.159 431.454 181.539C429.742 181.92 428.127 182.65 426.71 183.685C425.293 184.72 424.106 186.036 423.223 187.552C422.34 189.068 421.779 190.75 421.578 192.492C421.376 194.235 421.536 196 422.05 197.678C422.563 199.355 423.418 200.909 424.56 202.24L432.56 213.36L419.76 222.96L411.76 211.84C409.109 208.331 407.303 204.258 406.485 199.937C405.666 195.615 405.857 191.164 407.042 186.928C408.226 182.693 410.373 178.789 413.315 175.519C416.256 172.25 419.913 169.704 424 168.08C430.188 165.592 437.05 165.341 443.403 167.371C449.756 169.401 455.202 173.584 458.8 179.2L549.04 345.6L534.96 353.28Z" fill="#A0A8B2"/>
<path d="M486 526C543.438 526 590 479.438 590 422C590 364.562 543.438 318 486 318C428.562 318 382 364.562 382 422C382 479.438 428.562 526 486 526Z" fill="#E3B015"/>
<path d="M384.88 446C381.04 430.23 381.04 413.77 384.88 398H315.12C318.96 413.77 318.96 430.23 315.12 446H384.88Z" fill="#E3B015"/>
<path d="M486 494C525.765 494 558 461.765 558 422C558 382.235 525.765 350 486 350C446.235 350 414 382.235 414 422C414 461.765 446.235 494 486 494Z" fill="#C7E2FB"/>
<path d="M534 368.16C526.666 361.426 518.016 356.286 508.595 353.065C499.174 349.844 489.187 348.611 479.266 349.446C469.344 350.281 459.704 353.164 450.953 357.914C442.203 362.664 434.533 369.177 428.427 377.042C422.322 384.907 417.914 393.952 415.482 403.607C413.05 413.262 412.648 423.316 414.299 433.135C415.95 442.954 419.62 452.323 425.077 460.651C430.533 468.979 437.658 476.085 446 481.52C470.696 474.228 492.477 459.362 508.268 439.021C524.058 418.68 533.059 393.893 534 368.16Z" fill="#EBF7FE"/>
<path d="M214 526C271.438 526 318 479.438 318 422C318 364.562 271.438 318 214 318C156.562 318 110 364.562 110 422C110 479.438 156.562 526 214 526Z" fill="#E3B015"/>
<path d="M414 426.48C414.398 432.907 415.635 439.254 417.68 445.36L509.36 353.92C503.265 351.794 496.918 350.476 490.48 350L414 426.48Z" fill="#4472B0"/>
<path d="M526 362.32L426.32 462C429.352 466.429 432.867 470.507 436.8 474.16L538.48 372.8C534.727 368.849 530.541 365.333 526 362.32Z" fill="#4472B0"/>
<path d="M549.2 387.52L504.32 432.32L515.68 443.68L555.68 403.68C554.2 398.045 552.023 392.616 549.2 387.52Z" fill="#4472B0"/>
<path d="M214 494C253.765 494 286 461.765 286 422C286 382.235 253.765 350 214 350C174.236 350 142 382.235 142 422C142 461.765 174.236 494 214 494Z" fill="#C7E2FB"/>
<path d="M262 368.16C254.666 361.426 246.016 356.286 236.595 353.065C227.174 349.844 217.187 348.611 207.266 349.446C197.344 350.281 187.704 353.164 178.953 357.914C170.203 362.664 162.533 369.177 156.427 377.042C150.322 384.907 145.914 393.952 143.482 403.607C141.05 413.262 140.647 423.316 142.299 433.135C143.95 442.954 147.62 452.323 153.077 460.651C158.533 468.979 165.658 476.085 174 481.52C198.696 474.228 220.477 459.362 236.268 439.021C252.058 418.68 261.059 393.893 262 368.16Z" fill="#EBF7FE"/>
<path d="M142 426.48C142.398 432.907 143.635 439.254 145.68 445.36L237.36 353.92C231.265 351.794 224.918 350.476 218.48 350L142 426.48Z" fill="#4472B0"/>
<path d="M254 362.32L154.32 462C157.352 466.429 160.867 470.507 164.8 474.16L266.48 372.8C262.727 368.849 258.541 365.333 254 362.32Z" fill="#4472B0"/>
<path d="M277.2 387.52L232.32 432.32L243.68 443.68L283.68 403.68C282.2 398.045 280.023 392.616 277.2 387.52Z" fill="#4472B0"/>
</svg>
