<svg width="2552" height="1113" viewBox="0 0 2552 1113" fill="none" xmlns="http://www.w3.org/2000/svg">
<path d="M852.668 287.109C852.668 287.109 889.685 319.195 896.177 336.16C898.407 302.179 922.801 242.344 1000.08 232.698C1072.15 242.4 1090.02 255.289 1090.02 255.289C1090.02 255.289 1141.49 133.791 1234.25 200.235L1270.68 229.393C1270.68 229.393 1380.16 213.189 1414.26 245.872C1441.73 231.131 1506.06 202.786 1599.34 241.698C1626.82 226.957 1671.87 208.638 1705.94 241.321C1745.12 224.193 1807.18 214.603 1862.96 248.964C1898.63 229.505 2034.93 180.405 2060.01 318.55C2072.9 322.022 2105 120.41 2291.66 228.695C2329.03 202.789 2496.94 144.204 2518.19 353.239C2537.63 388.902 2565.99 453.232 2528.09 506.669C2535.27 541.788 2538.94 589.809 2493.92 608.127C2495.14 629.207 2491.2 669.637 2468.97 680.26C2511.79 695.923 2600.68 858.03 2452.38 997.964C2417.86 1008.04 2409.07 1009.83 2390.94 1010.48C2372.77 1011.13 2324.74 1014.82 2314.77 1010.75C2304.8 1006.69 2274.93 1009.72 2263.23 1012.11C2251.52 1014.49 2213.49 1022.24 2213.49 1022.24C2213.49 1022.24 2119.88 1056.55 2082.7 978.776C2060.54 1004.63 1934.37 1103.48 1850.76 977.257C1836.76 998.395 1755.64 1078.93 1647.02 1009.61C1614.29 1028.47 1538.26 1059.2 1491.86 1025.98C1462.59 1031.94 1378.39 1067.38 1292.74 1036.06C1267.01 1044.35 1159.3 1069.33 1128.71 1023.75C1079 1049.12 981.917 1096.32 887.718 963.108C838.864 1018.13 644.63 1167.66 365.226 1082.4C241.386 1044.61 136.108 961.95 67.2147 852.32C23.9873 783.525 -5.11817 700.094 8.13463 585.999C41.5748 298.113 311.467 98.7767 597.579 145.017C607.121 146.558 616.826 148.303 626.662 150.263C690.828 76.2318 707.68 39.2702 707.68 39.2702C707.68 39.2702 744.403 -20.0198 818.897 16.6172C888.767 60.3003 924.014 83.6026 924.014 83.6026C924.014 83.6026 1000.9 131.948 929.686 201.317C871.324 258.928 852.668 287.109 852.668 287.109" fill="#177F4A"/>
<path d="M852.658 287.112C852.658 287.112 889.685 319.196 896.204 336.161C898.421 302.178 922.809 242.344 1000.07 232.699C1072.18 242.4 1090.05 255.289 1090.05 255.289C1090.05 255.289 1141.47 133.789 1234.28 200.234L1270.68 229.393C1270.68 229.393 1380.18 213.189 1414.26 245.872C1441.73 231.13 1506.05 202.785 1599.33 241.699C1626.83 226.957 1671.87 208.639 1705.95 241.318C1745.13 224.191 1807.17 214.602 1862.96 248.962C1898.63 229.505 2034.93 180.403 2060.01 318.55C2072.92 322.018 2104.98 120.408 2291.64 228.695C2329.03 202.788 2496.93 144.203 2518.18 353.239C2537.63 388.9 2565.99 453.233 2528.1 506.67C2535.25 541.789 2538.92 589.809 2493.92 608.128C2495.15 629.209 2491.18 669.639 2468.97 680.261C2511.79 695.922 2600.67 858.029 2452.39 997.964C2417.88 1008.04 2409.08 1009.83 2390.95 1010.48C2372.78 1011.13 2324.77 1014.82 2314.77 1010.75C2304.81 1006.69 2274.96 1009.72 2263.25 1012.11C2251.54 1014.49 2213.48 1022.24 2213.48 1022.24C2213.48 1022.24 2119.91 1056.55 2082.71 978.776C2060.54 1004.63 1934.37 1103.48 1850.75 977.257C1836.75 998.395 1755.65 1078.93 1647.02 1009.61C1614.29 1028.47 1538.25 1059.2 1491.86 1025.98C1462.61 1031.94 1378.39 1067.38 1292.75 1036.06C1267.01 1044.35 1159.3 1069.33 1128.69 1023.75C1078.99 1049.12 981.907 1096.32 887.733 963.108C838.859 1018.13 644.621 1167.66 365.229 1082.4C241.39 1044.61 136.107 961.95 67.2136 852.32C23.9882 783.525 -5.11781 700.091 8.13474 585.997C41.5755 298.111 311.467 98.7766 597.6 145.017C607.13 146.555 616.825 148.302 626.653 150.265C690.848 76.2324 707.69 39.2709 707.69 39.2709C707.69 39.2709 744.387 -20.023 818.906 16.6175C888.759 60.2996 924 83.6049 924 83.6049C924 83.6049 1000.9 131.946 929.691 201.319C871.32 258.929 852.658 287.112 852.658 287.112V287.112Z" stroke="#177F4A" stroke-width="9.33333" stroke-miterlimit="10"/>
<path d="M867.459 612.346C867.459 817.936 700.807 984.599 495.215 984.599C289.623 984.599 122.948 817.936 122.948 612.346C122.948 406.756 289.623 240.091 495.215 240.091C700.807 240.091 867.459 406.756 867.459 612.346Z" fill="#E3B015"/>
<path d="M468.282 454.132C462.88 454.973 459.359 458.058 456.277 462.386C453.656 466.067 449.155 466.283 444.913 465.691C443.352 465.475 442.572 464.34 442.692 462.598C442.992 458.032 448.234 452.476 454.137 450.591C459.759 448.8 464.901 450.023 468.282 454.132" fill="black"/>
<path d="M461.259 469.29C462.908 466.17 463.331 463.322 466.55 461.865C470.533 460.059 474.053 460.051 477.373 462.823C480.672 465.579 485.701 466.832 486.104 472.515C484.273 472.751 483.066 471.743 481.859 470.888C472.444 464.183 472.203 464.151 461.259 469.29" fill="black"/>
<path d="M381.476 447.819C383.077 448.508 384.716 449.109 386.258 449.907C387.955 450.789 387.546 452.516 386.843 453.541C386.082 454.663 384.911 453.383 384.345 452.819C383.038 451.496 382.003 449.889 380.872 448.4C381.067 448.205 381.281 448.012 381.476 447.819" fill="black"/>
<path d="M373.035 475.688C374.144 474.081 375.292 473.869 376.323 473.488C376.985 473.246 377.666 472.419 378.347 473.311C378.6 473.665 378.698 474.322 378.581 474.762C378.328 475.686 377.433 475.657 376.674 475.681C375.642 475.714 374.611 475.688 373.035 475.688Z" fill="black"/>
<path d="M152.91 685.415C152.91 685.415 147.591 699.626 152.91 716.088C158.518 733.283 191.055 805.551 191.055 805.551L201.65 804.886L200.01 734.416L224.28 700.475L257.704 665.358L277.785 707.781L229.932 795.958L208.499 833.64L215.104 841.311L282.772 721.946L293.411 746.671L302.765 795.958L293.411 819.2L263.179 837.966L231.55 868.243L249.171 881.178C249.171 881.178 271.823 920.655 313.337 921.266C334.948 919.347 336.344 943.224 339.669 943.495C342.971 943.766 367.662 951.266 367.662 951.266C367.662 951.266 380.518 944.746 387.322 956.229C391.755 965.296 404.655 965.266 404.655 965.266L419.062 966.266C419.062 966.266 421.522 934.746 430.743 928.856C439.941 922.968 447.477 890.443 447.477 890.443L439.032 819.2V800.639L451.134 758.925L456.919 752.023L483.317 740.156L487.595 735.358L491.097 747.843L522.903 824.561L544.38 841.262L540.346 966.599L594.051 970.599L748.693 859.659V854.849L814.765 763.711L817.048 744.459V718.681L810.288 698.558L810.931 682.602L789.52 627.918V616.334L785.575 609.51L783.868 600.759L780.277 594.859L796.302 582.17L817.048 547.746L819.819 529.833L815.718 507.325L795.837 488.472L777.595 468.535L728.435 464.31L711.922 462.003C711.922 462.003 703.654 474.472 693.171 488.472C682.709 502.469 683.729 512.598 683.729 512.598L683.707 519.462L663.515 535.926L667.15 545.388L663.515 555.659L661.01 570.03L661.498 579.801L658.794 589.613L663.515 598.184L682.731 609.195L671.76 616.334L651.036 624.675L641.239 642.121L625.68 661.018L598.129 670.664L593.231 661.018L581.838 663.237L577.583 649.524C577.583 649.524 575.699 641.748 553.556 638.822C544.159 626.88 540.612 616.603 540.612 616.603L527.491 606.198L522.903 591.583L510.424 567.544L489.346 542.538L497.236 535.926L503.376 529.567L504.972 521.475L508.296 502.965L516.32 485.508L518.182 472.843L513.483 452.762L503.376 441.212L476.512 428.958L450.757 410.102H426.265L422.387 405.388H408.091L384.973 419.529L360.747 444.196L348.734 468.335V477.981L335.413 490.216L326.215 505.057L323.511 528.7L307.02 538.852L305.602 570.03L300.548 571.726L250.456 570.485L238.332 571.726L231.594 575.643L227.361 586.694L223.748 595.061L211.38 612.569L196.331 629.531L152.91 685.415" fill="white"/>
<path d="M470.066 549.501C470.642 552.567 471.375 555.615 471.752 558.702C472.107 561.73 470.754 563.354 467.471 563.068C466.317 562.968 464.787 562.693 464.498 564.421C464.232 565.905 464.232 567.387 465.452 568.635C466.65 569.864 467.848 569.596 469.178 568.99C469.777 568.718 470.443 568.72 470.443 567.737C470.31 563.139 472.861 563.327 476.033 564.716C472.839 569.203 468.402 572.775 466.339 578.06C463.655 578.402 463.766 576.255 463.3 574.64C462.923 573.307 462.724 571.736 460.994 571.641C459.374 571.555 459.108 573.072 458.842 574.236C458.354 576.446 456.912 577.348 454.805 577.739C452.875 578.096 452.409 579.198 453.407 581.055C455.603 585.148 454.272 588.632 449.681 590.118C447.241 590.908 445.111 591.582 445.355 594.577C445.599 597.656 445.4 601.085 449.548 602.121C451.167 602.527 451.855 603.958 452.431 605.408C452.764 606.253 452.875 607.48 454.162 607.351C455.337 607.236 455.625 606.16 455.759 605.213C456.579 599.949 458.221 594.856 457.577 589.34C456.601 581.197 457.311 580.822 465.031 583.743C464.01 591.09 463.012 598.437 461.969 605.781C461.282 610.597 462.258 615.06 464.742 619.219C471.641 630.751 478.317 642.414 484.018 654.599C486.059 658.971 489.652 661.555 494.466 663.4C493.135 664.172 492.27 664.516 491.604 665.102C490.85 665.776 489.053 665.197 489.209 666.827C489.386 668.538 490.828 668.715 492.225 669.026C497.682 670.221 503.338 670.412 508.906 672.568C506.111 674.236 503.826 675.857 500.677 675.742C495.242 675.545 493.201 677.1 491.959 682.237C491.538 684.029 491.538 685.924 491.338 687.902C492.07 687.822 492.669 687.935 492.846 687.716C500.433 678.75 512.699 678.912 521.794 672.865C523.368 671.812 525.432 671.818 527.361 671.818C530.445 671.816 531.531 670.226 530.112 667.384C524.189 655.603 523.413 642.924 523.302 630.108C525.365 630.168 524.389 632.659 526.097 633.422C526.341 629.185 525.964 625.097 526.296 621.053C526.54 617.872 525.01 618.651 523.28 619.31C524.411 605.828 522.193 593.195 515.05 581.377C512.056 576.39 510.747 570.399 506.222 566.207C505.512 565.539 505.224 564.248 505.046 563.194C504.913 562.354 504.403 561.176 505.534 560.612C506.555 560.113 507.376 560.721 508.063 561.477C512.877 566.746 518.222 571.679 519.176 579.367C519.287 580.294 519.642 581.301 520.174 582.047C524.256 587.583 526.053 594.076 528.027 600.482C529.047 603.78 530.91 606.191 533.816 608.154C542.423 613.955 547.99 622.284 552.094 631.598C554.09 636.123 556.93 638.648 562.076 638.568C572.08 638.41 578.268 643.536 581.085 652.981C581.485 654.292 582.194 655.515 582.505 656.839C583.237 659.78 584.546 660.395 587.562 659.274C595.193 656.446 597.567 657.997 598.454 666.058C598.764 668.644 599.164 669.396 601.803 667.919C605.973 665.567 610.254 663.238 614.735 661.608C625.338 657.755 632.725 650.36 638.78 641.238C641.154 637.689 643.749 634.309 646.3 630.88C650.248 625.529 653.575 620.024 661.295 618.496C666.973 617.369 671.099 612.123 676.134 609.059C678.286 611.149 679.106 614.439 682.168 615.707C682.323 616.109 682.412 616.672 682.101 616.865C677.443 619.835 673.827 624.675 667.505 624.638C665.487 624.627 663.402 625.146 661.405 625.62C657.967 626.432 654.551 627.694 653.176 631.228C649.472 640.859 642.551 648.23 636.163 655.938C627.334 666.577 619.859 678.127 612.717 689.899C610.365 693.785 607.792 697.529 605.374 701.367C604.598 702.58 603.533 703.818 604.177 705.792C607.415 704.636 609.123 702.01 610.853 699.472C617.153 690.26 622.587 680.491 629.22 671.501C637.36 660.501 647.919 652.132 658.455 643.703C659.52 642.849 660.74 641.485 662.426 642.771C662.803 643.534 663.646 643.92 664.045 644.628C665.531 647.27 664.045 650.036 661.117 649.581C658.699 649.204 657.901 649.517 658.145 652.065C658.389 654.583 657.213 656.3 654.551 656.746C654.019 656.839 653.198 656.826 652.999 657.189C651.091 660.856 647.586 662.923 644.88 665.776C643.46 667.298 642.507 669.323 640.444 670.279C639.135 670.88 638.137 671.789 637.671 673.187C637.072 675.041 635.985 676.332 633.856 676.348C632.214 676.361 631.682 677.297 631.881 678.783C631.992 679.597 632.059 680.624 633.035 680.735C634.654 680.924 635.098 679.533 635.408 678.373C636.163 675.627 637.693 674.442 640.599 675.185C642.263 675.616 643.838 674.693 645.479 674.646C647.83 674.58 648.429 673.227 648.34 671.068C648.03 663.025 650.004 661.116 658.145 661.488C659.941 661.57 661.738 661.209 663.513 661.399C666.485 661.719 668.615 661.306 668.947 657.668C669.125 655.807 670.744 655.007 672.541 654.803C674.337 654.599 676.112 654.59 677.909 654.783C679.994 655.007 681.48 654.454 681.813 652.19C682.234 649.188 684.319 648.161 686.937 647.636C688.267 647.363 689.643 647.188 690.974 646.768C694.722 645.575 695.565 644.322 694.966 640.362C694.612 638.047 694.279 635.742 694.19 633.393C694.101 631.317 693.303 629.067 690.907 629.644C688.445 630.239 684.585 629.092 684.053 633.384C683.898 634.748 683.986 636.134 683.986 637.512C683.898 643.241 683.365 643.692 677.709 642.875C676.201 642.301 675.158 643.057 674.226 644.124C673.96 644.424 673.672 644.69 673.361 644.961C673.783 644.659 674.116 644.266 674.493 643.927C675.402 643.135 676.267 642.572 676.999 644.131C677.532 646.804 677.842 649.603 674.559 650.588C671.454 651.524 669.214 649.912 668.215 646.926C667.306 644.138 664.245 644.854 662.692 643.173C661.028 640.633 663.668 640.072 664.799 639.198C670.788 634.595 676.777 630.014 682.789 625.421C684.874 623.828 686.781 622.069 688.467 620.062C689.244 619.114 690.131 618.008 689.443 616.732C688.733 615.454 687.469 616.217 686.426 616.337C685.362 616.466 684.253 616.836 683.321 615.922C682.9 615.368 682.522 614.736 682.5 614.064C682.434 612.129 681.946 610.827 679.617 610.692C678.419 610.623 677.332 609.767 676.866 608.463C675.602 605.812 672.762 606.056 670.589 605.257C660.962 601.722 655.882 592.867 657.834 582.785C658.322 580.361 658.588 577.892 658.943 575.445C660.23 573.518 662.803 573.067 664.001 571.024C665.598 575.319 664.467 579.394 662.914 583.388C660.252 590.258 661.051 593.038 667.461 596.6C675.602 601.114 683.543 606.041 692.659 608.54C695.831 609.412 697.406 611.774 698.782 614.682C704.416 626.681 700.778 626.794 715.485 621.692C720.01 620.121 724.513 618.493 728.993 616.725C731.345 615.785 733.518 615.823 735.87 617.14C734.295 619.476 731.699 620.046 729.348 620.876C725.089 622.375 720.719 623.6 716.483 625.128C708.519 627.989 702.908 633.597 698.338 640.979C703.018 640.759 706.922 638.876 711.115 638.31C711.935 638.2 712.978 636.966 713.621 638.306C714.242 639.537 712.934 640.145 712.202 640.746C711.07 641.709 709.828 642.696 708.453 643.244C691.528 650.036 676.644 660.461 661.184 669.866C655.794 673.156 650.47 676.505 644.592 678.861C633.323 683.353 624.872 691.733 616.11 699.665C615.356 700.351 615.023 701.497 614.336 702.671C616.266 703.684 618.151 703.636 619.549 702.666C631.615 694.375 645.346 689.448 658.322 682.971C668.77 677.758 679.617 675.106 691.04 673.979C692.526 673.83 694.035 673.579 695.521 673.298C701.532 672.153 703.107 670.365 703.595 664.314C703.817 661.714 703.972 659.097 704.416 656.526C704.904 653.509 706.678 652.922 709.096 654.681C710.294 655.559 711.403 656.635 712.357 657.793C714.841 660.84 717.991 661.459 720.475 658.636C735.537 641.642 757.053 636.547 776.506 627.608C777.017 627.377 777.505 627.14 777.993 626.922C786.377 623.327 787.775 623.262 785.69 613.636C785.401 612.313 785.756 610.869 785.579 609.51C785.446 608.405 786.377 606.863 784.869 606.269C783.671 605.799 782.362 606.491 781.431 607.265C773.002 614.356 762.088 615.395 752.328 619.19C751.241 619.614 749.733 620.022 749.045 618.535C748.313 616.996 749.334 616.016 750.576 615.177C755.212 612.012 760.624 610.934 765.881 609.419C768.388 608.7 770.894 608.01 773.379 607.256C775.508 606.611 776.44 604.756 776.684 602.886C776.906 601.078 774.799 600.981 773.645 600.369C772.07 599.548 770.34 599.058 768.654 598.452C762.732 596.307 761.866 595.222 761.578 588.865C761.29 582.435 762 576.47 766.48 571.107C770.074 566.805 771.272 561.009 773.379 555.823C774.333 553.494 773.379 553.117 770.983 553.765C767.7 554.652 765.948 555.905 765.482 559.736C763.819 573.972 752.484 584.968 738.199 586.669C735.493 586.993 733.873 588.93 731.855 590.303C730.102 591.489 729.038 591.463 729.104 589.08C729.193 585.777 729.415 582.479 729.659 579.181C729.792 577.333 730.99 577.479 731.832 578.504C734.117 581.29 737.356 580.864 740.173 580.773C749.844 580.469 760.048 569.405 759.892 559.836C759.804 554.091 754.946 549.732 749.09 550.134C738.886 550.83 737.467 549.142 739.751 539.007C741.238 532.313 742.701 525.607 744.165 518.906C744.432 517.708 744.565 516.074 746.073 516.122C747.803 516.178 747.249 517.912 747.426 519.053C748.003 523.045 746.362 526.592 745.252 530.259C743.678 535.54 742.258 540.855 744.565 546.48C747.67 545.289 748.713 542.973 749.223 539.855C749.977 535.194 749.134 530.168 752.084 525.59C752.883 528.54 753.46 531.186 754.325 533.735C754.635 534.693 755.456 535.891 756.632 535.831C757.852 535.767 758.184 534.413 758.451 533.406C759.826 528.083 765.105 526.098 768.033 522.105C768.832 521.027 770.34 520.772 771.36 521.701C772.359 522.584 771.493 523.751 771.005 524.642C770.029 526.31 768.943 527.903 767.878 529.509C767.057 530.767 766.059 531.965 766.746 533.744C769.43 533.724 770.739 531.982 771.76 529.822C772.647 527.974 773.512 527.493 775.442 529.054C778.791 531.794 783.161 533.216 785.845 537.175C787.753 535.323 787.353 533.069 787.708 531.02C787.841 530.23 787.62 528.89 789.061 528.881C790.281 528.872 790.636 529.784 790.88 530.765C790.947 531.029 791.08 531.279 791.146 531.543C793.387 539.506 793.387 539.509 801.749 540.054C801.794 541.949 800.041 543.078 799.686 544.741C799.42 546.008 799.509 547.388 800.618 548.14C801.749 548.903 802.237 547.527 802.814 546.931C804.389 545.365 806.274 544.779 808.404 544.692C809.247 544.659 810.067 544.646 810.888 544.564C813.506 544.306 815.835 542.647 815.879 540.442C815.923 538.371 812.951 537.976 810.977 537.619C809.247 537.302 807.406 537.534 805.631 537.284C804.81 537.171 803.59 536.907 803.679 535.669C803.768 534.726 804.943 534.345 805.564 534.36C809.712 534.458 809.247 532.255 808.004 529.673C807.25 528.063 807.894 526.794 808.626 525.23C810.777 526.282 810.933 528.313 811.753 529.897C813.062 532.435 814.748 532.304 816.012 530.061C817.498 527.519 817.698 524.682 815.591 522.351C813.262 519.782 811.753 517.039 811.909 513.487C811.975 511.979 811.11 510.548 809.801 510.459C808.626 510.38 807.938 511.901 807.539 513.117C807.339 513.767 807.228 514.454 807.139 515.133C806.407 520.579 806.341 520.625 800.729 519.155C799.975 522.737 801.616 526.122 801.528 529.602C801.505 530.722 801.905 532.025 800.618 532.348C799.465 532.643 799.265 531.162 798.91 530.39C797.934 528.362 796.803 526.665 794.806 525.414C791.723 523.485 791.856 520.545 792.633 517.353C794.03 511.759 793.564 511.313 787.974 512.411C785.423 512.915 783.937 512.873 785.357 509.55C786.377 507.174 786.888 504.579 787.509 502.048C787.73 501.148 787.708 500.014 786.732 499.486C785.734 498.963 784.913 499.639 784.093 500.203C781.031 502.348 779.967 505.653 779.257 509.024C778.325 513.507 775.553 514.9 771.272 515.06C768.299 515.171 767.545 514.219 768.366 511.637C769.32 508.634 770.473 505.69 771.294 502.656C771.715 501.079 773.645 498.872 771.671 497.88C769.586 496.833 769.142 499.699 768.166 501.037C766.48 503.312 765.815 506.347 762.976 507.937C761.534 505.67 762.843 503.794 763.619 501.904C764.528 499.755 765.527 497.645 766.502 495.531C767.722 492.905 769.275 490.689 772.691 491.463C776.129 492.244 779.745 492.96 778.769 497.931C778.725 498.195 778.725 498.486 778.747 498.747C778.924 499.748 779.656 499.686 780.3 499.406C782.984 498.253 786.222 498.078 788.108 495.609C788.596 494.959 787.287 493.719 786 493.648C784.758 493.581 784.004 492.914 783.472 491.833C779.812 484.405 779.811 484.409 773.667 480.326C775.908 480.026 777.926 479.806 779.922 479.46C780.743 479.318 782.03 480.042 782.252 478.58C782.429 477.522 781.653 476.779 780.899 476.191C776.019 472.411 770.473 470.215 764.329 469.488C761.001 469.095 759.116 470.579 758.317 473.698C757.142 478.347 755.966 482.996 754.791 487.643C752.462 488.173 751.574 485.161 749.045 485.363C748.779 488.435 751.463 489.775 752.728 491.82C753.859 493.648 755.9 495.036 755.079 497.627C753.859 501.4 752.75 505.236 751.264 508.907C750.709 510.286 749.179 511.276 747.471 513.115C747.67 509.43 747.559 506.58 748.047 503.834C748.846 499.351 747.027 496.503 743.278 494.351C736.003 490.17 728.15 487.297 720.32 484.383C717.37 483.285 714.375 482.251 711.514 480.96C706.545 478.724 704.86 474.942 706.767 469.856C709.34 462.928 712.557 459.606 720.453 460.236C736.513 461.511 752.617 462.05 768.454 465.293C775.242 466.684 780.876 469.516 785.446 475.164C788.485 478.897 793.409 481.02 796.98 484.405C810.6 497.377 822.201 512.13 822.423 531.734C822.622 551.513 817.099 569.767 799.575 582.053C795.183 585.136 790.88 588.371 786.643 591.653C782.606 594.781 782.141 597.552 784.47 602.061C787.176 607.3 789.705 612.628 790.858 618.473C791.013 619.283 791.501 620.268 791.213 620.891C788.928 625.904 792.167 629.544 794.185 633.464C801.527 647.571 809.557 661.36 813.151 677.106C814.415 682.667 814.703 688.266 814.504 693.916C814.415 696.684 814.592 699.401 815.191 702.098C814.082 703.472 814.016 705.634 811.997 706.333C810.467 701.593 809.912 696.613 809.868 691.755C809.735 680.192 806.252 669.658 801.528 659.348C797.779 651.138 794.163 642.858 790.414 634.644C788.507 630.489 786.266 629.322 782.207 631.084C768.898 636.849 755.123 641.549 742.147 648.057C735.293 651.484 729.393 656.136 724.623 662.171C720.498 667.397 718.945 667.783 712.645 665.15C708.453 663.394 708.098 663.635 707.743 668.329C707.211 675.605 705.458 677.45 698.338 678.209C693.281 678.748 688.223 679.575 683.166 679.781C678.552 679.968 675.313 683.373 670.966 684.176C668.748 684.582 670.145 687.607 669.391 689.621C663.468 685.573 657.723 686.915 651.646 689.714C636.096 696.875 621.234 705.435 605.308 711.852C599.119 714.345 594.572 719.451 589.293 723.353C584.546 726.836 579.843 730.385 573.677 730.979C571.592 729.83 572.612 728.058 572.967 726.598C573.899 722.781 576.006 719.487 578.446 716.503C589.004 703.452 598.432 689.524 609.212 676.645C611.741 673.63 615.046 671.23 616.62 667.313C610.92 670.121 604.465 671.412 599.785 676.126C597.988 676.7 598.764 677.807 599.23 678.854C599.541 679.941 599.607 681.048 599.43 682.139C599.141 683.779 598.875 685.751 596.79 685.784C594.949 685.81 594.505 683.98 594.283 682.485C593.884 679.489 593.152 676.523 593.219 673.466C593.241 672.364 593.352 671.237 593.13 670.163C592.753 668.278 593.374 665.437 590.49 665.352C587.74 665.268 585.411 666.732 584.834 669.809C584.191 673.196 583.725 676.603 583.836 680.074C583.947 683.57 583.148 686.917 581.817 690.134C581.44 691.028 580.908 692.07 579.888 692.075C578.801 692.079 578.446 690.928 578.069 690.056C577.07 687.747 576.671 685.325 576.671 682.805C576.671 676.19 576.671 669.578 576.671 662.961C576.671 661.584 576.693 660.204 576.56 658.831C575.607 649.199 571.836 645.451 562.187 644.532C560.523 644.375 558.881 644.501 557.218 644.32C553.513 643.909 550.563 642.283 549.299 638.637C545.484 627.699 536.678 620.507 529.579 611.923C529.668 630.17 526.674 648.705 536.256 665.698C536.788 666.652 537.121 667.723 537.454 668.77C539.118 673.715 537.609 676.869 532.419 677.306C523.923 678.018 516.492 681.445 508.95 684.834C506.954 685.742 504.98 686.749 503.227 688.104C501.719 689.257 500.566 690.599 501.32 692.667C502.163 694.874 504.004 695.26 506.067 695.056C508.551 694.807 510.925 694.075 513.298 693.299C519.575 691.229 525.809 689.042 532.13 687.059C541.491 684.116 546.526 686.21 551.34 694.747C556.907 704.578 562.541 714.383 567.821 724.373C569.218 727.051 571.68 729.032 572.59 731.993C577.558 739.821 584.28 746.225 590.025 753.434C590.269 753.758 590.624 754.026 590.823 754.381C596.191 763.974 602.934 763.912 613.582 760.55C626.78 756.379 637.871 749.155 647.453 739.362C648.407 738.39 649.516 737.583 650.559 736.7C652.222 737.308 653.376 738.412 653.886 740.156C648.163 746.329 642.085 752.021 634.255 755.528C628.865 757.941 624.806 761.534 623.697 767.759C623.098 771.219 620.081 772.949 617.463 775.729C618.084 772.534 618.816 770.001 619.016 767.426C619.194 765.046 618.462 763.236 615.378 764.922C614.003 765.671 612.761 766.457 611.94 767.772C604.931 779.058 598.498 790.541 599.186 804.529C599.274 806.288 598.853 808.092 598.542 809.851C598.321 811.077 598.431 813.005 596.613 812.783C595.393 812.634 594.239 811.454 594.195 809.802C593.995 804.458 592.953 799.117 594.261 793.776C596.346 785.344 598.409 776.906 605.552 770.977C606.794 769.941 607.149 768.482 607.504 766.554C601.182 766.867 596.701 772.224 589.914 772.461C591.533 770.884 592.842 769.746 593.973 768.471C594.949 767.393 597.589 766.703 596.347 765.004C594.949 763.118 592.376 762.466 590.025 763.974C588.428 764.993 587.03 766.275 585.322 767.608C584.879 763.935 587.319 761.015 586.697 757.202C583.614 759.103 583.281 762.53 581.485 764.895C580.309 766.441 579.71 769.87 577.559 768.803C575.185 767.621 577.337 764.915 578.113 763.038C579.244 760.385 580.686 757.874 581.906 755.266C582.793 753.383 582.882 751.424 581.196 749.969C573.344 743.195 568.575 734.093 562.985 725.669C557.307 717.096 552.36 708.034 547.081 699.19C544.53 694.907 544.219 695.151 540.338 698.394C533.373 704.228 525.631 709.006 517.734 713.489C510.592 717.557 503.183 721.155 495.575 724.329C492.469 725.627 488.787 726.802 486.325 724.101C483.752 721.264 484.506 717.297 486.147 713.983C487.234 711.801 488.854 709.86 490.406 707.946C492.137 705.803 492.159 703.753 490.673 701.526C488.432 698.23 486.392 694.776 483.996 691.598C472.617 676.514 468.336 658.616 463.655 640.857C466.983 640.424 468.336 643.164 470.177 645.023C471.374 646.227 472.484 647.398 474.369 647.083C475.079 646.968 475.722 646.646 475.877 645.901C476.033 645.052 475.367 644.564 474.68 644.541C470.82 644.417 468.935 642.7 469.334 638.61C469.467 637.173 468.092 637.024 466.894 637.441C465.607 637.893 464.831 639.26 463.389 639.486C461.792 635.602 461.615 631.512 461.792 627.408C461.947 623.56 460.727 620.53 457.733 617.977C449.903 611.273 442.206 604.412 434.442 597.616C434.131 597.345 433.776 597.13 433.466 596.857C431.935 595.504 429.629 594.36 428.32 595.593C426.967 596.877 428.874 598.785 429.873 600.145C443.825 619.101 452.365 640.753 460.949 662.38C460.106 664.345 459.175 666.235 456.468 665.687C454.139 662.73 452.875 659.203 451.389 655.827C443.026 636.931 434.331 618.189 425.214 599.641C423.174 595.458 420.534 591.658 417.14 587.277C416.985 590.225 418.072 591.798 419.026 593.346C427.189 606.726 432.379 621.111 433.776 636.78C434.02 639.664 434.242 642.549 433.599 645.418C432.401 647.416 431.137 649.315 428.608 649.747C427.322 643.982 428.364 637.998 426.479 632.226C422.73 620.652 419.381 608.946 415.854 597.294C415.432 595.85 415.033 594.005 413.414 593.923C412.282 593.867 411.883 595.644 411.329 596.744C407.58 604.015 400.903 604.903 392.452 604.714C387.328 604.601 382.98 602.123 379.054 598.993C375.084 595.826 371.18 592.561 367.253 589.324C366.521 588.734 365.368 588.146 366.122 587.046C366.743 586.117 367.963 586.43 368.762 586.92C372 588.963 375.172 591.117 378.389 593.239C382.248 595.804 385.82 598.871 390.522 599.947C398.574 601.771 406.826 597.352 409.399 589.721C410.752 585.673 409.643 583.382 405.473 583.06C397.288 582.43 389.524 580.543 382.16 576.896C379.986 575.827 377.612 575.94 375.283 575.909C370.292 575.847 369.893 575.447 370.137 570.485C371.113 569.143 372.511 568.795 374.041 568.851C375.328 568.893 376.126 568.356 376.281 567.054C376.37 566.519 376.459 565.92 376.06 565.51C375.106 564.512 374.374 565.51 373.598 565.88C372.732 566.284 371.934 566.805 370.936 566.337C373.398 559.621 375.084 552.733 375.616 545.58C377.146 543.264 378.766 543.457 380.54 545.318C381.605 546.412 382.515 547.563 383.136 548.954C383.712 551.163 384.267 553.374 384.844 555.586C384.045 556.542 382.914 556.353 381.827 556.382C380.651 556.413 379.675 556.775 379.52 558.128C379.387 559.406 379.697 560.619 380.895 561.262C382.115 561.908 382.914 561.012 383.668 560.211C384.311 559.525 384.866 558.745 385.908 558.576C387.372 561.169 388.747 563.818 390.322 566.344C391.942 568.93 393.605 571.373 389.28 572.972C388.592 573.227 388.016 573.751 388.282 574.511C388.659 575.605 389.457 576.208 390.722 576.379C396.267 577.144 401.79 578.222 408.312 577.914C404.12 573.172 398.818 570.177 396.4 564.727C398.463 562.886 400.105 564.445 401.813 565.395C407.868 571.956 414.146 578.178 422.353 582.228C431.536 586.778 436.461 585.982 443.47 578.615C449.171 572.644 455.027 566.825 460.905 561.034C464.432 557.553 467.404 553.656 470.066 549.501" fill="black"/>
<path d="M599.308 675.612C604.666 669.989 611.93 668.227 619.068 664.813C618.796 667.905 617.352 669.119 616.18 670.387C601.945 685.733 590.327 703.151 577.475 719.577C574.984 722.772 572.681 726.429 573.686 730.978C573.33 731.317 572.953 731.654 572.597 731.993C570.462 730.816 569.185 728.918 568.013 726.856C561.942 715.969 555.893 705.06 549.718 694.236C545.594 687.039 541.051 685.335 533.159 687.831C524.933 690.428 516.748 693.148 508.542 695.835C506.847 696.396 505.151 696.872 503.33 696.474C500.902 695.948 500.023 694.05 499.625 692.003C499.144 689.585 500.944 688.111 502.702 687.169C511.745 682.317 520.579 677.008 531.297 676.51C536.99 676.244 538.895 673.628 536.237 668.727C528.533 654.476 527.34 639.216 528.031 623.512C528.219 618.84 528.052 614.149 528.052 609.587C528.847 609.179 529.35 609.286 529.706 609.778C536.802 619.29 546.745 626.757 550.45 638.703C551.455 641.916 554.281 642.821 557.232 643.26C558.572 643.463 559.996 643.283 561.356 643.354C572.786 643.959 577.474 648.659 577.747 660.09C577.914 667.117 577.872 674.151 577.747 681.178C577.663 684.963 578.249 688.544 579.861 692.273C581.891 688.546 582.645 684.724 582.729 680.755C582.792 677.308 583.064 673.893 583.42 670.465C583.754 667.293 585.136 665.566 588.171 664.551C593.007 662.925 593.551 663.056 594.116 668.329C594.598 672.707 594.849 677.111 595.121 681.509C595.226 683.054 595.247 684.538 597.026 685.58C599.308 683.43 598.554 680.684 598.491 678.093C597.863 676.964 598.659 676.315 599.308 675.612Z" fill="white"/>
<path d="M457.117 665.674C458.399 664.575 459.681 663.477 460.962 662.378C464.628 670.798 467.492 679.501 470.256 688.227C471.738 692.9 470.957 694.584 466.33 696.671C454.413 702.045 444.939 709.919 439.151 721.928C436.226 728.013 435.285 734.476 434.664 741.042C434.164 746.297 433.202 751.389 430.238 755.881C428.435 758.621 429.757 761.768 428.916 764.702C427.574 769.313 426.092 773.507 421.585 776.077C418.441 777.871 417.539 781.208 417.299 784.575C417.119 787.413 416.157 789.622 413.614 791.111C412.091 789.268 412.372 787.275 413.093 785.234C414.555 781.024 413.253 777.641 409.848 775.061C406.543 772.562 405.602 769.593 407.124 765.69C408.466 762.257 408.987 758.371 410.87 755.295C417.479 744.483 416.698 732.656 416.338 720.847C416.238 717.546 414.695 714.96 412.091 712.763C395.988 699.285 377.241 690.372 358.494 681.477C354.648 679.655 350.442 678.745 346.096 678.914C341.89 679.08 338.865 677.434 337.744 673.155C337.063 670.536 335.04 669.458 332.836 668.627C329.151 667.245 327.328 664.519 327.248 660.749C326.868 642.437 326.567 624.122 326.227 605.808C326.227 605.423 326.347 605.032 326.447 604.41C329.211 605.137 329.391 607.26 329.612 609.453C331.074 623.591 331.094 637.774 331.074 651.967C331.054 664.781 329.792 665.054 343.972 666.764C359.856 668.681 373.676 676.021 386.534 685.307C395.587 691.844 404 699.199 412.652 706.209C414.976 708.092 418.18 711.321 420.283 709.097C422.306 706.966 418.941 703.804 416.999 701.531C397.671 679.06 379.825 655.508 365.504 629.484C361.097 621.45 357.532 612.95 353.466 604.714C352.285 602.296 353.226 601.013 355.409 600.436C357.372 599.919 359.014 599.496 359.475 597.077C359.775 595.599 360.897 596.069 361.538 597.001C361.919 597.542 362.119 598.271 362.199 598.938C363.821 615.588 372.454 629.444 380.205 643.592C386.594 655.233 395.427 665.118 403.759 675.365C409.988 683.032 415.476 691.314 421.325 699.309C422.246 700.559 422.867 702.844 424.589 702.35C426.212 701.887 425.992 699.58 426.212 697.967C428.155 683.596 428.515 669.148 428.335 654.671C428.315 653.03 428.515 651.39 428.615 649.745C429.997 648.433 431.399 647.122 432.801 645.808C434.324 647.037 433.963 648.796 434.023 650.402C434.624 662.947 433.142 675.443 433.102 687.977C433.102 692.728 430.959 697.054 429.717 701.565C428.475 706.127 429.437 708.308 432.962 710.305C435.425 711.699 437.709 711.715 439.772 709.688C446.742 702.834 453.912 696.155 460.101 688.54C461.423 686.903 461.663 685.083 461.303 683.092C460.542 678.882 459.6 674.732 457.958 670.748C457.317 669.172 456.135 667.569 457.117 665.674" fill="black"/>
<path d="M429.675 932.237C428.769 932.12 428.064 931.884 427.761 930.987C427.379 929.904 428.285 929.576 428.93 929.113C434.187 925.373 434.65 924.335 432.837 918.609C428.97 906.471 425.002 894.369 421.074 882.25C420.912 881.731 420.651 881.239 420.489 880.711C420.046 879.023 419.059 877.36 417.528 876.957C415.836 876.503 415.393 878.681 414.426 879.741C414.084 880.135 413.741 880.56 413.338 881.062C411.264 879.297 412.895 877.65 413.459 876.225C420.55 858.682 426.996 840.936 431.951 822.647C438.014 800.169 443.675 777.582 451.188 755.492C452.719 751.02 454.915 749.936 458.299 748.816C461.16 747.872 464.04 746.951 466.901 746.022C474.011 743.726 480.216 740.215 484.446 733.775C485.352 732.411 486.339 730.278 488.636 731.342C490.187 732.065 490.429 737.189 488.998 738.529C488.011 739.456 486.803 740.171 485.594 740.801C478.544 744.471 471.634 748.426 464.141 751.23C459.085 753.123 455.822 756.819 454.21 762.041C450.201 774.878 446.898 787.899 443.796 800.972C442.506 806.375 445.327 811.203 446.394 816.219C448.127 824.351 448.65 832.578 449.355 840.789C450.503 853.505 453.384 865.966 454.593 878.667C454.714 880.129 455.237 881.69 456.023 882.933C459.246 888.074 461.16 893.414 460.072 899.64C459.689 901.786 461.301 903.502 462.731 905.019C465.531 907.966 467.062 911.62 468.371 915.593" fill="black"/>
<path d="M812.003 706.333C813.045 704.915 812.934 702.622 815.195 702.099C817.323 712.142 820.449 722 819.695 732.519C818.986 742.463 819.562 755.365 814.774 763.71C800.631 788.399 783.073 809.931 768.553 834.376C764.008 842.008 754.277 846.176 751.594 854.895C753.7 855.921 755.341 854.642 757.025 853.913C767.245 849.526 777.42 845.081 787.64 840.763C788.66 840.324 790.123 838.863 791.142 840.572C791.918 841.895 791.009 843.112 789.923 844.157C787.418 846.553 784.758 848.717 781.522 850.033C714.595 877.172 659.152 947.699 592.248 974.821C587.415 976.783 582.338 977.952 577.262 979.235C574.845 979.85 573.005 979.664 571.121 977.772C572.097 976.228 573.693 975.443 575.289 974.869C599.785 966.067 641.794 938.161 666.113 928.856C700.784 915.587 709.696 882.836 744.389 869.641C747.16 868.586 744.345 857.393 745.83 854.724C765.206 819.907 792.761 791.487 813.045 757.219C820.072 745.323 817.39 728.617 813.4 715.263C812.535 712.392 811.914 709.393 812.003 706.333" fill="black"/>
<path d="M582.589 862.729C587.341 868.197 593.56 871.892 599.145 876.322C604.203 880.334 610.401 880.351 616.489 878.617C624.876 876.234 632.497 872.056 640.03 867.882C661.141 856.168 683.105 846.265 704.938 835.973C724.056 826.964 741.597 814.963 759.095 803.079C763.562 800.041 766.212 795.099 769.628 790.953C771.599 788.538 773.789 786.304 776.526 783.304C775.453 788.908 774.708 793.496 773.679 798.011C773.022 800.792 771.226 802.772 768.555 804.09C762.292 807.196 756.116 810.485 749.897 813.682C748.32 814.495 746.656 815.184 745.298 816.7C746.634 818.432 748.276 818.18 749.963 817.58C752.678 816.608 755.35 815.572 758.043 814.53C759.204 814.081 760.802 813.279 761.438 814.361C762.226 815.699 760.759 816.884 759.708 817.733C755.963 820.698 751.78 822.86 746.941 822.902C740.853 822.952 735.378 824.739 730.056 827.5C693.792 846.298 657.79 865.598 620.365 882.075C608.583 887.252 601.948 886.36 592.597 877.697C591.261 876.449 589.881 875.424 587.998 875.163C581.691 874.298 576.698 871.003 572.494 866.483C568.42 862.085 563.756 858.606 558.347 855.986C547.266 850.61 537.521 843.27 528.214 835.263C520.067 828.269 515.797 818.997 512.403 809.164C505.33 788.717 498.212 768.281 491.095 747.843C490.351 745.657 489.584 743.485 490.351 740.859C492.212 741.762 494.117 742.515 494.161 744.786C494.271 750.607 496.417 755.803 499.176 760.724C506.403 773.622 508.855 788.33 514.878 801.695C519.301 811.477 523.462 821.318 530.732 829.449C534.63 833.814 538.966 837.896 544.397 839.856C552.084 842.621 557.712 847.917 563.625 853.015C568.223 856.972 572.735 861.054 577.509 864.788C578.428 865.512 580.837 869.47 581.866 864.47C581.538 863.649 581.078 862.779 582.589 862.729" fill="black"/>
<path d="M244.995 876.764C263.124 884.806 280.78 893.969 300.013 899.319C308.546 901.694 317.256 902.681 326.084 902.752C331.05 902.792 335.957 903.302 340.903 903.779C362.915 905.901 380.906 891.522 385.675 869.699C386.423 866.377 385.556 864.048 382.167 862.446C377.615 860.296 373.28 858.461 367.999 859.724C363.92 860.7 362.008 857.068 359.958 854.463C357.968 851.956 360.156 850.084 361.555 848.327C363.663 845.65 366.402 843.918 369.93 843.642C373.93 843.333 376.551 845.01 377.852 848.782C378.206 849.816 378.462 850.876 378.797 851.921C380.906 858.688 384.808 860.85 391.705 859.074C393.557 858.597 395.291 857.638 397.262 857.716C398.385 857.76 399.686 857.833 399.922 859.07C400.119 860.016 399.173 860.97 398.306 861.261C394.917 862.389 391.902 863.774 390.838 867.601C388.118 877.334 383.448 886.729 389.931 897.059C396.277 907.172 404.967 914.905 413.381 923.018C415.234 924.803 416.968 926.706 419.056 928.857C414.288 928.85 411.115 927.012 407.903 924.024C401.853 918.396 395.449 913.202 390.66 906.335C387.823 902.258 385.281 898.031 383.369 893.463C382.088 890.397 380.926 889.756 378.758 892.812C371.408 903.15 360.885 907.757 348.628 908.14C319.305 909.06 291.185 904.102 265.173 889.792C260.858 887.411 256.956 883.823 252.364 882.491C248.601 881.403 246.315 879.513 244.187 876.758C244.462 876.451 244.738 876.437 244.995 876.764" fill="black"/>
<path d="M653.892 740.154C652.464 739.294 651.299 738.198 650.573 736.699C666.838 720.373 680.574 701.396 700.421 688.763C702.927 687.178 705.454 685.965 708.333 685.548C709.41 685.394 710.861 684.381 711.476 686.211C712.004 687.743 710.465 687.917 709.696 688.464C701.96 693.921 694.201 699.394 685.827 703.851C683.981 704.823 682.223 705.823 682.552 708.95C689.827 706.106 696.949 703.427 704.004 700.541C717.982 694.801 732.73 691.737 747.236 687.719C760.489 684.055 772.621 685.2 784.995 689.77C786.863 690.453 788.446 691.433 789.523 693.288C785.61 696.036 781.478 694.223 777.808 693.26C756.577 687.684 736.862 694.174 716.18 700.21C718.927 701.599 721.103 701.188 723.147 701.036C732.07 700.379 740.972 699.57 749.895 698.88C752.049 698.715 755.28 698.678 755.368 700.893C755.456 702.845 752.269 703.522 749.983 703.711C736.972 704.794 723.96 706.245 710.927 706.895C693.784 707.748 679.849 715.034 667.739 726.602C663.079 731.07 658.486 735.635 653.892 740.154Z" fill="black"/>
<path d="M664.011 571.024C664.742 575.261 660.875 574.256 658.941 575.444C658.468 568.921 659.091 562.655 662.099 556.648C664.398 552.095 664.764 547.243 662.808 542.282C661.347 538.563 664.119 532.328 668.266 529.552C670.78 527.876 673.53 526.544 675.979 524.829C681.05 521.333 683.456 516.649 682.275 510.328C681.329 505.191 682.833 500.547 685.755 496.295C688.699 491.992 692.18 488.049 694.543 483.352C694.78 482.875 695.166 482.441 695.596 482.102C697.1 480.888 699.141 479.379 700.667 480.514C701.934 481.453 700.409 483.522 699.55 484.843C696.262 490.069 692.76 495.167 689.516 500.423C685.627 506.692 687.152 509.971 694.242 510.97C695.789 511.187 697.229 511.523 698.282 512.801C700.903 515.989 703.524 519.163 706.167 522.337C708.23 524.801 709.24 527.53 708.208 531.021C705.437 529.715 703.718 527.366 702.192 524.855C700.538 522.13 698.798 519.513 696.004 517.801C693.985 516.567 692.867 517.098 692.781 519.468C692.674 522.496 692.61 525.523 692.631 528.55C692.631 530.512 693.576 531.775 695.424 532.71C697.444 533.744 700.688 533.112 701.182 536.442C701.44 538.258 700.044 540.166 696.627 543.058C694.371 540.041 692.094 537.05 689.902 533.999C688.119 531.537 687.431 528.81 688.226 525.796C688.441 525.001 688.656 524.163 688.634 523.357C688.527 521.426 689.902 518.566 687.474 517.898C685.541 517.375 685.369 520.338 684.595 521.832C682.06 526.677 678.02 529.913 673.272 532.302C670.93 533.492 669.211 535.157 668.395 537.572C667.471 540.333 668.008 542.774 670.844 544.239C673.379 545.561 676.216 546.216 678.686 547.808C680.448 548.941 680.835 546.983 681.437 545.806C683.65 541.545 684.552 540.866 688.527 540.512C687.474 544.744 685.326 548.378 683.177 551.968C682.06 553.818 680.298 554.433 678.192 553.279C677.483 552.886 676.688 552.651 675.936 552.282C670.436 549.501 666.805 551.753 666.396 558.139C666.289 559.767 667.385 560.189 668.481 560.786C670.801 562.045 672.821 563.687 674.583 565.653C675.378 566.542 675.829 567.726 675.163 568.682C674.368 569.821 673.079 569.148 672.155 568.656C670.844 567.943 669.662 566.961 668.438 566.082C667.17 565.178 665.623 564.176 664.291 565.092C663.195 565.863 663.56 567.591 663.84 568.97C663.99 569.638 663.968 570.337 664.011 571.024" fill="black"/>
<path d="M465.027 583.745C463.467 585.016 462.227 583.733 460.868 583.267C458.468 582.451 457.248 583.279 458.048 585.816C460.268 592.945 457.588 599.745 456.788 606.666C456.588 608.42 454.909 609.027 453.409 609.183C451.749 609.353 452.089 607.778 451.829 606.81C451.17 604.452 450.19 603.179 447.29 602.499C443.811 601.683 444.491 597.44 444.211 594.644C443.911 591.753 444.731 588.942 449.05 589.355C451.029 589.545 452.149 587.254 453.429 585.9C455.609 583.645 453.569 582.667 451.989 581.491C450.99 580.753 450.91 579.554 451.41 578.486C451.929 577.334 452.809 576.162 454.189 576.434C456.688 576.926 457.648 576.128 457.868 573.567C458.028 571.985 458.308 569.706 460.908 570.069C463.067 570.369 464.347 571.703 464.347 573.979C464.367 575.67 464.347 577.344 466.326 578.062C465.906 579.955 465.467 581.851 465.027 583.745" fill="black"/>
<path d="M424.207 798.294C420.121 805.794 408.891 807.281 401.094 804.302C396.91 802.702 393.436 801.875 390.831 807.154C389.133 810.636 382.423 811.232 379.422 808.921C376.146 806.414 375.219 801.282 377.705 797.925C379.324 795.73 381.298 793.747 383.331 791.909C385.916 789.562 389.094 789.718 391.226 792.578C397.7 801.371 406.265 802.305 415.878 799.469C418.522 798.685 421.108 797.771 424.207 798.294" fill="black"/>
<path d="M412.232 834.189C407.218 838.814 401.81 838.52 396.52 836.846C391.467 835.249 386.826 834.732 381.851 837.257C378.744 838.85 372.019 836.032 371.134 833.356C369.64 828.772 372.609 822.094 377.014 820.122C381.615 818.075 385.037 819.434 387.396 824.251C391.565 832.662 396.147 835.017 405.566 833.808C407.532 833.556 409.597 833.104 412.232 834.189" fill="black"/>
<path d="M383.136 548.951C382.061 547.974 380.79 547.137 379.95 545.986C378.542 544.066 377.154 544.623 375.629 545.581C376.255 534.885 376.802 524.183 377.525 513.495C377.858 508.508 379.735 506.473 384.563 506.078C387.476 505.839 387.594 504.277 387.34 502.197C387.105 500.314 386.088 498.529 386.734 496.205C388.962 497.736 390.546 499.679 391.699 501.906C393.693 505.667 392.442 508.94 388.337 509.816C384.036 510.737 382.433 513.436 382.1 517.337C381.201 527.913 381.533 538.455 383.136 548.951" fill="black"/>
<path d="M658.595 692.376C662.498 691.693 665.569 692.604 668.001 695.599C668.832 696.633 670.027 697.403 671.157 698.192C671.69 698.572 672.373 698.776 673.013 698.953C673.738 699.147 674.868 698.601 674.612 698.267C671.648 694.274 680.819 694.199 677.172 690.166C675.615 688.424 673.29 685.775 675.124 684.38C676.915 682.992 679.496 685.496 681.096 687.477C683.271 690.201 683.42 692.809 680.925 695.541C677.918 698.813 674.825 701.865 670.794 703.863C668.534 704.983 666.465 705.034 664.929 702.903C662.541 699.612 660.152 696.296 658.595 692.376" fill="black"/>
<path d="M176.361 713.512C178.397 713.346 180.91 714.1 183.001 715.775C186.963 718.952 190.797 722.28 194.649 725.598C195.254 726.113 195.914 726.86 196.025 727.575C196.245 729.272 196.942 731.572 195.419 732.502C194.209 733.247 192.906 731.286 191.916 730.253C190.375 728.689 189.054 726.911 187.532 725.317C180.855 718.272 176.507 717.387 167.427 720.9C166.162 721.392 164.346 723.013 163.355 721.37C162.346 719.701 164.383 718.457 165.52 717.384C168.363 714.737 171.83 713.578 176.361 713.512" fill="black"/>
<path d="M238.357 588.589C240.104 586.319 241.869 586.462 243.841 587.097C252.817 589.998 259.954 595.031 263.841 603.977C264.423 605.354 265.118 606.696 265.869 607.998C266.695 609.414 268.01 611.203 266.32 612.274C264.592 613.363 263.615 611.128 262.62 609.988C261.024 608.124 259.409 606.219 258.132 604.129C253.494 596.548 246.339 592.161 238.357 588.589Z" fill="black"/>
<path d="M463.389 639.488C464.071 638.635 464.693 637.738 465.436 636.939C466.599 635.669 468.145 635.565 469.589 636.165C471.295 636.865 470.874 638.224 470.452 639.646C469.73 642.054 470.733 643.284 473.281 643.342C474.846 643.377 476.813 642.821 477.395 645.032C477.736 646.338 477.074 647.783 475.85 648.036C473.943 648.437 471.756 649.049 470.271 646.822C468.586 644.273 466.479 642.154 463.65 640.858C463.569 640.401 463.489 639.943 463.389 639.488" fill="black"/>
<path d="M523.294 619.308C524.089 618.119 524.538 616.177 526.412 616.686C528.266 617.191 527.207 619.029 527.247 620.223C527.37 624.474 527.329 628.732 527.288 632.989C527.268 634.014 527.635 635.471 526.106 635.648C524.517 635.831 524.089 634.578 524.008 633.215C523.926 632.149 524.252 630.986 523.315 630.108C523.315 626.509 523.315 622.909 523.294 619.308" fill="black"/>
<path d="M401.044 830.562C400.003 822.408 403.951 812.405 408.429 811.611C406.013 817.763 406.956 824.814 401.044 830.562Z" fill="black"/>
<path d="M401.822 565.395C399.999 565.171 398.215 564.95 396.392 564.726C392.982 559.636 390.121 554.307 390.003 547.639C393.943 553.558 397.882 559.475 401.822 565.395" fill="black"/>
<path d="M755.088 497.627C754.609 494.099 751.428 492.391 749.75 489.652C749.183 488.737 748.334 488.02 747.637 487.166C746.874 486.177 747.048 484.948 747.593 484.079C748.356 482.852 749.423 483.861 750.404 484.122C752.408 484.658 753.105 486.743 754.783 487.643C755.764 487.748 756.853 487.519 757.333 488.722C756.003 490.533 755.023 492.343 757.333 494.156C758.553 496.583 755.328 496.137 755.088 497.627" fill="white"/>
<path d="M385.913 558.576C385.562 559.141 385.172 559.709 384.821 560.276C383.787 561.879 382.773 563.937 380.452 562.677C378.307 561.505 377.859 559.12 378.444 556.965C379.068 554.732 381.096 555.212 382.832 555.518C383.495 555.633 384.197 555.566 384.86 555.584C385.601 556.444 385.913 557.454 385.913 558.576Z" fill="black"/>
<path d="M388.987 855.884C388.87 849.79 391.726 845.973 393.741 841.873C393.897 841.522 394.68 841.295 395.15 841.311C395.893 841.338 395.932 842.1 395.776 842.555C394.269 846.912 394.113 851.962 388.987 855.884" fill="black"/>
<path d="M370.942 566.338C371.779 565.875 372.596 565.424 373.432 564.943C374.464 564.33 375.222 562.313 376.74 563.801C378.024 565.056 377.576 566.857 377.167 568.443C376.74 570.129 375.67 570.443 374.074 569.793C372.713 569.227 371.487 570.404 370.145 570.485C369.814 568.988 370.281 567.647 370.942 566.338Z" fill="black"/>
<path d="M676.878 608.464C677.603 608.811 678.328 609.436 679.054 609.468C683.362 609.654 683.512 612.777 683.746 615.872C683.341 616.418 682.872 616.448 682.317 616.121C677.923 615.801 676.857 612.591 676.153 609.059C676.387 608.858 676.643 608.662 676.878 608.464Z" fill="black"/>
<path d="M757.342 494.155C756.906 494.454 756.164 495.091 756.077 495.006C754.289 493.433 755.379 491.305 755.226 489.44C755.074 487.717 756.579 488.838 757.342 488.721C761.813 490.535 757.669 492.345 757.342 494.155" fill="black"/>
<path d="M582.599 862.728C582.351 863.308 582.102 863.89 581.874 864.47C580.756 861.732 578.478 859.947 576.49 857.92C575.703 857.114 574.771 856.155 575.91 855.205C577.153 854.169 577.712 855.642 578.271 856.395C579.762 858.466 581.15 860.612 582.599 862.728Z" fill="black"/>
<path d="M343.373 587.923C341.428 587.312 339.482 586.704 337.152 585.977C339.521 584.157 341.524 581.226 343.296 586.089C343.873 587.667 345.626 586.661 346.358 587.726C345.357 587.792 344.374 587.857 343.373 587.923Z" fill="white"/>
<path d="M444.931 538.852C445.428 540.393 447.157 540.981 445.984 542.281C445.706 542.609 444.494 542.623 444.136 542.303C442.804 541.106 444.215 540.265 444.931 538.852Z" fill="black"/>
<path d="M584.111 769.131C584.795 770.911 583.655 772.281 583.157 773.755C582.701 772.128 581.893 770.437 584.111 769.131Z" fill="black"/>
<path d="M245.016 876.762L244.624 876.818L244.195 876.757C242.369 876.999 241.717 875.558 240.859 874.38C240.878 874.075 240.878 873.767 240.878 873.462C242.257 874.561 243.636 875.663 245.016 876.762" fill="black"/>
<path d="M316.862 620.045C308.626 663.31 290.977 702.774 269.199 740.742C254.802 765.842 241.442 791.541 227.697 817.007C224.097 823.671 219.949 829.974 215.74 836.256C215.211 837.042 215.049 838.517 213.503 838.112C211.938 837.699 211.043 836.439 211.328 835.029C211.856 832.376 211.124 831.032 208.481 830.078C207.362 829.673 206.773 827.713 206.021 826.418C203.031 821.322 200.103 816.196 197.094 811.108C195.833 808.953 196.036 808.005 198.863 807.928C204.15 807.782 204.699 807.153 204.475 801.738C203.845 786.203 203.641 770.67 201.466 755.198C199.737 742.926 203.804 731.655 211.226 722C224.829 704.33 238.128 686.362 254.7 671.189C257.161 668.922 257.913 669.388 259.052 672.11C262.61 680.716 266.331 689.256 269.992 697.817C270.215 698.321 270.419 698.86 270.764 699.262C276.519 705.834 275.116 712.41 270.622 718.82C255.88 739.829 244.96 762.929 233.533 785.772C227.046 798.784 220.254 811.653 213.666 824.614C212.934 826.036 211.775 827.353 212.019 829.753C216.086 827.347 218.546 823.856 220.397 820.029C239.389 780.876 261.533 743.422 281.765 704.944C295.775 678.229 304.58 649.484 310.192 619.829C311.494 612.812 312.043 605.648 313.1 598.578C313.364 596.874 312.897 593.814 315.256 594.001C317.35 594.17 319.038 596.414 319.099 599.166C319.221 606.226 318.184 613.127 316.862 620.045V620.045ZM300.147 787.773C302.201 801.846 296.121 812.613 285.12 820.936C279.406 825.259 272.899 828.321 266.881 832.14C253.582 840.548 241.89 850.544 234.631 865.541C229.161 858.611 223.548 852.541 219.116 845.577C217.469 842.97 217.997 839.973 219.685 837.411C242.053 803.56 260.191 767.368 278.776 731.425C279.528 729.991 280.321 728.582 281.501 726.368C287.398 736.271 290.976 746.161 293.783 756.328C296.65 766.652 298.602 777.197 300.147 787.773V787.773ZM517.153 456.162C514.591 448.522 510.626 441.32 502.533 438.207C496.656 435.95 491.39 432.948 486.509 429.091C481.853 425.415 477.217 421.748 472.642 417.989C457.94 405.902 440.453 403.421 422.274 403.269C416.763 403.224 411.293 403.254 405.885 404.598C388.336 408.944 375.058 419.516 364.566 433.634C356.859 443.957 349.722 454.669 347.099 467.779C345.187 477.165 338.416 483.82 332.519 490.897C327.802 496.553 322.23 501.686 320.807 509.466C319.953 514.112 320.217 518.771 320.217 523.435C320.217 529.241 319.18 530.331 313.364 530.796C307.915 531.231 304.885 533.824 304.58 539.221C304.092 548.151 303.95 557.104 303.848 566.049C303.828 568.61 303.035 570.023 300.371 570.009C290.997 569.954 281.603 570.118 272.249 569.76C263.322 569.419 254.395 568.418 245.469 567.91C236.095 567.375 230.828 570.934 227.473 579.722C226.985 580.997 226.456 582.258 226.029 583.551C222.349 594.513 216.411 604.105 208.867 612.84C188.899 635.997 166.898 657.567 152.908 685.413C151.24 688.75 151.952 691.645 151.606 694.744C151.566 695.189 152.318 696.052 152.826 696.176C154.067 696.473 153.884 695.326 154.108 694.579C154.921 691.662 156.324 688.994 157.788 686.348C168.443 667.226 182.006 650.212 196.768 634.234C211.267 618.554 224.362 602.191 232.15 581.993C234.895 574.82 242.154 571.357 249.8 573.28C256.693 575.019 263.668 575.265 270.642 575.31C281.216 575.377 291.81 576.65 302.343 574.677C303.462 574.47 305.434 573.703 305.292 576.153C305.027 580.609 306.064 584.537 309.033 588.004C310.03 589.169 309.562 590.959 309.379 592.431C307.976 603.206 306.532 613.971 304.641 624.681C299.924 651.685 290.427 677.035 278.369 701.989C277.942 701.391 277.658 701.078 277.475 700.72C271.862 690.037 267.43 678.806 262.509 667.808C261.146 664.755 262.814 661.939 266.311 660.776C269.951 659.562 273.672 658.547 277.373 657.563C279.345 657.037 280.789 656.115 281.379 653.976C277.007 652.158 273.977 656.547 270.012 656.16C269.605 653.411 272.228 651.782 272.391 648.976C269.829 649.434 268.324 650.928 266.718 652.368C245.652 671.346 227.27 692.721 210.291 715.383C204.597 722.988 204.455 722.946 197.033 716.475C194.044 713.856 190.932 711.723 186.378 712.301C189.428 716.386 193.881 718.303 197.277 721.484C200.266 724.3 202.665 727.572 200.266 731.616C195.142 740.282 195.731 749.591 196.687 758.913C197.988 771.65 199.88 784.328 199.575 797.188C199.534 799.365 199.188 801.909 197.256 802.525C195.325 803.143 192.966 802.029 191.38 800.311C190.668 799.512 190.079 798.55 189.55 797.586C187.882 794.442 186.174 791.313 184.67 788.088C172.286 761.45 161.468 734.241 154.778 705.527C154.514 704.368 154.535 702.825 152.786 702.965C151.078 703.099 150.59 704.74 150.752 705.881C151.667 711.802 152.928 717.76 154.575 723.417C156.385 729.658 160.492 735.231 160.614 742.119C160.614 742.519 160.635 743.076 160.879 743.292C164.376 746.375 164.457 751.198 166.938 754.964C170.802 760.861 171.554 768.348 174.462 774.903C175.621 777.547 176.373 780.668 177.39 783.468C179.647 789.762 182.697 795.776 185.483 801.881C188.065 807.56 192.234 812.217 195.975 817.078C197.622 819.224 197.643 822.626 199.758 823.577C202.706 824.913 203.54 827.156 204.434 829.633C206.468 835.288 209.132 840.648 213.117 845.133C216.391 848.828 217.997 853.456 220.885 857.397C223.955 861.633 226.456 866.525 231.56 868.241C235.383 869.53 238.352 871.434 240.853 874.38C240.955 874.38 241.056 874.28 241.138 874.079C241.219 873.878 241.138 873.67 240.894 873.461C238.291 870.39 238.535 867.43 240.71 864.115C246.14 855.849 252.748 848.731 260.719 842.895C269.605 836.396 279.589 831.652 288.414 825.017C302.77 814.201 308.057 800.413 304.316 782.695C302.099 772.242 300.168 761.658 300.107 750.864C300.046 743.562 300.859 736.366 301.998 729.168C303.482 719.812 304.885 710.43 304.295 700.899C304.173 698.831 304.844 696.222 306.512 696.015C308.545 695.761 309.745 698.217 310.192 700.277C314.645 720.345 328.229 732.385 345.94 740.587C359.645 746.924 373.391 745.978 386.994 739.992C387.991 739.548 389.272 738.957 389.068 737.729C388.845 736.199 387.32 736.773 386.364 736.789C384.859 736.809 383.334 737.051 381.87 737.391C372.069 739.664 362.288 740.126 352.507 737.188C334.695 731.84 323.369 719.245 315.011 703.441C309.826 693.63 308.24 683.302 310.945 672.338C312.714 665.154 314.015 657.846 315.418 650.574C318.204 636.151 320.868 621.708 323.694 607.291C325.057 600.245 328.412 594.838 335.854 592.653C338.68 591.827 341.222 590.05 343.378 587.921C342.219 586.058 340.205 585.953 338.619 585.607C339.778 585.149 341.263 584.155 342.34 586.056C343.235 587.659 344.964 587.309 346.367 587.726C347.566 588.891 346.407 589.743 345.899 590.589C344.496 592.976 344.252 595.796 346.306 597.329C348.746 599.155 350.718 597.022 352.406 594.967C357.001 589.401 359.035 582.789 360.987 576.013C363.061 568.776 362.654 560.653 368.348 554.614C369.019 553.924 369.202 552.533 369.141 551.496C368.734 544.076 370.564 537.098 372.821 530.119C374.468 525.015 374.428 519.852 371.113 514.669C369.527 520.332 368.144 525.607 366.579 530.831C364.769 536.917 363.427 537.464 357.835 534.776C355.985 533.891 354.134 532.992 352.04 531.976C353.565 530.965 354.805 530.308 355.842 529.432C359.726 526.162 363.081 522.341 362.939 516.997C362.776 511.239 361.78 505.507 361.272 499.752C360.418 490.032 358.201 480.439 358.567 470.603C358.669 468.031 359.096 464.531 361.373 464.358C363.935 464.167 364.444 467.785 364.891 470.143C366.172 476.89 367.189 483.688 368.429 490.445C368.938 493.204 369.161 496.194 372.191 497.816C374.896 492.668 375.526 487.381 374.509 481.744C373.533 476.459 371.866 471.386 370.381 466.252C368.714 460.401 369.019 454.832 372.516 449.698C374.672 446.56 377.457 444.74 382.094 445.915C378.413 451.822 372.008 456.693 376.888 464.749C380.243 470.286 379.389 479.219 388.967 479.243C390.553 476.02 381.707 474.428 388.174 470.691C383.415 469.546 383.273 469.438 381.443 465.607C383.538 464.879 385.673 464.584 387.909 464.474C394.843 464.133 397.202 460.501 394.762 453.951C393.847 451.519 392.423 449.279 391.59 446.828C389.231 439.978 385.408 435.364 377.336 436.531C377.275 436.541 377.193 436.371 377.112 436.283C381.179 429.799 382.582 429.13 387.096 431.228C389.394 432.298 391.203 433.894 392.932 435.708C393.949 436.781 395.657 437.302 396.694 436.657C398.341 435.639 396.755 434.166 396.287 433.05C395.657 431.549 394.64 430.195 393.725 428.831C391.508 425.573 392.179 422.903 395.311 420.711C400.598 417 405.905 413.32 411.192 409.595C413.673 407.842 416.174 407.614 419.041 409.204C416.906 411.372 414.771 413.303 412.9 415.453C405.234 424.221 406.779 435.976 416.275 442.593C418.004 443.805 420.302 443.292 421.827 444.952C425.365 448.85 430.082 450.696 434.962 452.296C439.375 453.744 443.849 455.056 447.834 457.579C454.402 461.729 455.256 461.493 459.241 454.712C459.526 454.24 459.872 453.803 460.156 453.339C463.918 447.457 463.796 447.103 457.635 443.827C453.751 441.769 450.03 439.419 446.065 437.564C443.544 436.391 447.793 431.381 442.811 432.208C439.66 432.733 437.606 430.886 435.329 429.469C432.766 427.871 430.326 426.098 427.927 424.249C426.483 423.135 425.121 422.566 423.433 423.493C422.132 424.188 420.586 424.522 419.752 423.249C419.081 422.23 419.834 420.849 420.566 419.812C422.132 417.574 424.002 415.601 427.032 416.465C430.55 417.472 433.681 416.496 436.447 414.688C440.88 411.787 444.581 412.6 448.464 415.703C455.663 421.464 463.044 427.025 470.324 432.688C472.926 434.717 475.529 436.509 479.067 436.812C481.324 437.003 483.764 437.544 485.513 439.264C488.746 442.479 492.833 443.382 497.124 443.847C499.747 444.132 502.655 444.551 504.302 446.576C510.3 453.986 515.831 461.699 515.791 471.911C515.75 479.198 513.147 485.872 511.073 492.692C510.26 495.348 508.674 496.848 505.868 497.589C505.4 492.977 507.067 488.867 508.043 484.656C509.812 477.008 502.167 466.892 494.765 467.073C493.667 467.102 492.325 466.888 491.898 468.163C491.308 469.863 493.016 469.125 493.647 469.586C494.562 470.272 493.992 471.03 493.626 471.744C492.976 473.013 492.915 474.363 492.854 475.76C492.65 482.086 492.488 488.42 492.061 494.734L470.079 549.497C469.449 551.826 469.713 554.178 470.181 556.452C470.832 559.711 470.344 561.877 466.44 562.097C464.264 562.216 463.369 563.707 463.451 565.795C463.532 567.924 464.447 569.598 466.582 570.141C468.432 570.612 470.547 570.236 471.117 568.317C471.93 565.651 473.801 565.106 476.037 564.714C485.188 554.262 494.379 543.851 503.468 533.33C506.091 530.274 508.348 526.577 508.003 522.536C507.108 512.205 510.26 502.938 514.896 494.13C521.444 481.716 521.464 468.995 517.153 456.162" fill="black"/>
<path d="M350.473 513.636C350.473 514.496 350.531 514.92 350.454 515.317C350.165 516.729 349.123 517.041 347.966 516.712C344.591 515.759 341.486 514.206 339.693 511.134C339.095 510.114 340.175 508.766 341.679 508.608C344.803 508.284 344.167 506.405 343.453 504.46C342.643 502.275 342.065 499.989 341.043 497.918C339.596 495.002 341.428 493.808 343.511 493.004C345.922 492.069 347.118 493.812 347.638 495.802C349.239 501.79 349.818 507.95 350.473 513.636" fill="white"/>
<path d="M498.799 527.353C498.839 530.245 494.417 535.764 491.448 535.918C488.58 536.065 487.146 533.765 486.278 531.398C485.187 528.476 487.631 523.039 490.378 521.828C493.71 520.363 498.738 523.675 498.799 527.353Z" fill="white"/>
<path d="M292.997 734.416C283.982 729.139 283.413 717.862 291.652 709.777C294.285 717.892 293.262 725.967 292.997 734.416" fill="white"/>
<path d="M353.014 567.983C355.487 567.253 355.255 568.97 355.119 570.942C354.83 574.803 352.048 575.723 349.131 575.636C346.427 575.557 343.202 575.356 342.429 571.672C342.101 570.108 342.062 568.767 344.476 568.765C347.181 568.761 349.904 568.29 353.014 567.983Z" fill="white"/>
<path d="M502.988 512.597C503.838 516.211 503.191 519.355 502.179 522.445C498.255 518.271 498.377 515.536 502.988 512.597Z" fill="white"/>
<path d="M352.414 552.004C354.23 554.412 356.355 556.634 353.109 559.387C352.568 559.855 351.911 560.919 351.197 559.768C349.535 557.063 348.994 554.373 352.414 552.004Z" fill="white"/>
<path d="M338.067 569.142C336.721 566.649 334.316 564.911 335.374 562.708C335.97 561.458 338.952 561.487 340.164 562.985C342.337 565.699 338.76 566.605 338.067 569.142" fill="white"/>
<path d="M316.564 581.738C317.5 581.249 318.436 580.78 319.104 581.668C319.257 581.878 318.875 582.811 318.531 582.998C317.328 583.648 317.366 582.078 316.564 581.738Z" fill="white"/>
<path d="M457.121 665.676C459.478 671.217 461.516 676.854 462.474 682.851C462.914 685.613 462.654 687.867 460.577 690C454.105 696.576 447.713 703.243 441.441 709.991C438.624 713.005 435.848 713.209 432.272 711.337C428.497 709.358 426.939 706.563 428.257 702.606C434.43 684.031 432.232 664.817 432.772 645.809C433.451 627.103 427.798 610.166 418.39 594.268C417.351 592.512 416.492 590.621 415.773 588.709C415.414 587.768 415.014 586.288 416.133 585.747C417.211 585.227 418.13 586.284 418.769 587.223C421.486 591.18 424.143 595.171 426.28 599.479C436.787 620.683 446.534 642.246 456.142 663.869C456.402 664.492 456.782 665.073 457.121 665.676" fill="white"/>
<path d="M682.334 616.12C682.804 616.037 683.274 615.953 683.745 615.87C684.963 615.641 686.139 615.293 687.357 615.216C688.383 615.152 689.452 613.719 690.521 615.564C691.462 617.208 691.056 618.33 690.072 619.63C686.288 624.647 681.008 627.965 676.177 631.755C671.538 635.374 666.835 638.889 662.154 642.448L662.175 642.429C643.492 654.992 628.699 671.138 617.583 690.734C614.74 695.739 611.896 700.799 607.813 705.004C606.445 706.429 605.034 707.624 602.854 707.374C602.362 705.577 602.469 703.937 603.538 702.289C610.208 691.961 616.407 681.301 623.098 671.001C629.297 661.416 637.378 653.042 644.603 644.113C646.762 641.439 648.836 638.653 649.926 635.368C652.47 627.768 657.921 624.053 665.638 623.788C670.427 623.623 674.488 622.467 677.802 618.788C678.913 617.546 680.795 616.988 682.334 616.12" fill="white"/>
<path d="M662.148 642.45C663.24 643.054 664.396 643.454 665.681 643.328C667.544 643.141 668.722 643.597 669.021 645.827C669.385 648.585 671.013 650.394 674.075 649.871C677.137 649.353 676.066 646.801 676.28 644.91C676.323 644.366 676.28 643.814 676.259 643.266C675.809 642.381 676.666 642.148 677.051 641.692C677.993 641.857 678.957 641.932 679.878 642.203C682.04 642.859 683.004 642.079 682.918 639.833C682.876 638.872 682.833 637.897 682.918 636.945C683.133 634.655 681.933 631.936 683.668 630.163C685.574 628.189 688.807 629.456 691.377 628.032C692.533 627.39 695.402 629.519 695.273 632.206C695.145 635.124 695.466 637.985 696.194 640.767C697.286 645.073 694.931 646.807 691.377 647.777C689.663 648.242 687.95 648.769 686.195 648.951C683.818 649.195 682.854 650.265 682.854 652.681C682.854 655.289 681.784 656.803 678.657 655.931C676.987 655.467 675.103 655.846 673.304 655.732C670.67 655.565 669.493 656.709 669.643 659.377C669.814 662.297 668.636 663.115 665.574 662.631C662.148 662.081 658.551 662.237 655.017 662.426C650.114 662.691 648.23 665.372 649.215 670.214C650.135 674.661 649.6 675.282 645.253 675.659C642.984 675.854 640.971 677.505 638.423 675.858C637.459 675.239 636.538 677.066 636.56 678.43C636.603 680.353 635.532 681.457 633.947 682.269C632.77 682.879 631.421 682.654 631.164 681.562C630.671 679.629 630.329 677.436 630.8 675.575C631.185 674.111 632.919 675.224 634.076 675.451C635.189 675.67 636.281 675.102 636.281 674.126C636.345 670.601 638.894 669.661 641.463 668.571C642.063 668.314 642.962 667.815 643.026 667.351C643.412 663.785 644.825 661.621 648.851 662.094C649.557 662.177 649.771 661.154 649.75 660.456C649.643 657.177 651.12 655.608 654.461 655.711C656.966 655.788 657.33 654.066 657.244 652.077C657.159 650.477 656.431 648.831 657.716 647.186C658.358 647.544 659.043 647.946 659.75 648.287C660.842 648.824 661.998 649.61 663.133 648.42C664.246 647.225 663.968 645.951 663.133 644.657C662.705 643.987 662.491 643.178 662.169 642.43L662.148 642.45" fill="black"/>
<path d="M774.662 569.483C775.586 575.4 775.322 580.444 771.76 584.881C770.99 585.844 770.045 587.348 770.902 588.217C772.002 589.329 773.827 589.477 775.498 589.615C777.169 589.752 777.609 588.626 778.07 587.467C778.202 587.089 778.312 586.647 778.268 586.253C777.455 578.159 782.688 575.604 789.614 574.215C789.79 578.45 791.088 582.843 785.349 584.809C783.392 585.475 782.886 587.632 781.984 589.312C779.39 594.119 776.004 595.702 771.166 594.446C767.538 593.503 766.197 590.46 765.493 585.457C764.416 577.764 768.681 573.606 774.662 569.483" fill="white"/>
<path d="M538.241 690.843C538.773 690.72 539.959 690.943 540.286 691.766C540.654 692.686 539.632 693.424 538.834 693.983C532.494 698.521 526.297 703.29 519.752 707.511C513.801 711.346 510.324 710.739 506.336 706.452C505.272 705.307 505.047 704.62 506.418 703.711C507.318 703.102 508.074 702.218 509.076 701.789C517.809 697.944 526.686 694.422 535.725 691.311C536.359 691.093 537.075 691.054 538.241 690.843" fill="white"/>
<path d="M485.198 684.763C480.609 675.416 472.778 667.69 473.462 656.3C473.502 655.479 473.341 654.555 473.664 653.859C474.147 652.78 474.851 651.205 475.717 651.01C477.126 650.69 477.488 652.457 477.891 653.538C480.246 659.942 482.4 666.368 485.984 672.314C488.198 675.98 488.298 680.461 485.198 684.763" fill="white"/>
<path d="M490.508 722.459C490.043 722.59 489.335 722.354 489.375 721.514C489.436 719.602 489.739 716.594 491.418 716.647C496.658 716.815 496.577 713.084 497.588 709.833C497.953 708.684 498.013 706.208 499.389 706.75C501.21 707.456 503.556 708.468 504.042 710.92C504.446 712.914 503.576 715 501.675 715.061C498.418 715.17 497.588 716.871 496.981 719.525C496.213 722.928 492.936 721.51 490.508 722.459" fill="black"/>
<path d="M499.949 701.857C499.97 702.857 499.788 703.516 499.081 703.849C498.333 704.215 498.232 703.415 497.969 703.063C496.01 700.441 494.07 697.815 492.232 695.118C491.626 694.245 491.08 692.918 492.252 692.253C493.081 691.788 494.575 691.659 495.283 692.683C497.283 695.594 498.737 698.815 499.949 701.857" fill="white"/>
<path d="M595.932 712.684C595.703 713.691 596.077 716.022 593.54 715.934C590.775 715.841 590.858 713.19 590.546 711.337C590.318 709.929 591.253 708.784 592.979 708.736C595.308 708.669 596.139 709.902 595.932 712.684" fill="black"/>
<path d="M599.737 701.576C597.466 701.589 596.882 700.18 596.841 698.357C596.799 696.531 597.653 695.298 599.529 695.577C601.612 695.879 603.155 697.302 603.321 699.384C603.55 702.195 600.862 700.726 599.737 701.576Z" fill="black"/>
<path d="M590.088 717.793C588.967 718.961 590.337 721.861 587.306 721.942C585.501 721.992 584.442 721.19 584.421 719.293C584.38 717.045 585.397 715.586 587.722 715.426C589.154 715.327 590.025 716.111 590.088 717.793Z" fill="black"/>
<path d="M677.074 641.69C676.798 642.214 676.542 642.738 676.265 643.264C674.775 644.524 673.285 645.786 671.773 647.049C672.944 644.626 674.2 642.295 677.074 641.69Z" fill="black"/>
<path d="M694.83 624.704C694.552 625.592 693.932 625.874 693.226 625.836C692.327 625.789 691.557 625.361 691.557 624.4C691.535 623.448 692.412 623.501 693.076 623.51C693.932 623.523 694.638 623.844 694.83 624.704" fill="black"/>
<path d="M734.224 479.422C734.115 477.641 735.22 476.463 736.542 475.306C736.087 476.727 738.123 478.707 735.285 479.574C734.874 479.805 734.527 479.753 734.224 479.422" fill="white"/>
<path d="M381.312 553.3C380.065 553.166 379.461 552.49 379.481 551.304C379.481 551.175 379.89 550.905 380.065 550.944C381.312 551.23 381.74 552.001 381.312 553.3Z" fill="#177F4A"/>
<path d="M599.317 675.611C599.421 676.562 599.067 677.365 598.484 678.092C597.652 677.973 596.799 677.723 597.027 676.652C597.277 675.365 598.443 675.707 599.317 675.611Z" fill="black"/>
<path d="M734.216 479.424C734.562 479.474 734.908 479.523 735.276 479.575C735.081 480.34 734.887 481.108 734.627 481.853C734.605 481.883 733.674 481.768 733.588 481.558C733.285 480.755 733.415 479.963 734.216 479.424" fill="black"/>
<path d="M426.726 750.61C423.759 745.968 423.918 744.859 427.952 740.569C430.662 743.982 430.306 747.341 426.726 750.61Z" fill="white"/>
<path d="M373.394 852.845C372.792 854.784 370.908 855.136 369.529 855.075C367.625 854.996 364.75 854.489 364.614 852.581C364.497 850.806 365.935 848.389 368.693 848.249C371.84 848.088 372.015 850.947 373.394 852.845" fill="white"/>
<path d="M388.941 800.284C388.57 803.488 387.184 805.481 384.002 805.55C381.581 805.6 381.171 803.613 380.975 801.891C380.741 799.792 384.451 795.571 386.247 795.731C389.39 796.012 387.848 799.027 388.941 800.284Z" fill="white"/>
<path d="M375.738 829.051C375.816 826.411 376.673 824.304 379.733 824.585C383.299 824.91 382.227 828.192 382.772 830.24C383.435 832.748 380.902 833.288 379.46 833.356C376.868 833.483 375.679 831.631 375.738 829.051Z" fill="white"/>
<path d="M430.025 560.569C434.531 559.987 437.925 561.409 441.36 562.326C442.313 562.578 442.789 563.646 442.61 564.658C442.392 565.766 441.34 565.558 440.586 565.52C436.675 565.329 433.598 563.309 430.025 560.569" fill="white"/>
<path d="M537.105 670.663L549.717 694.234L542.498 693.619L539.073 686.212L531.527 674.076L537.105 670.663" fill="black"/>
<path d="M422.409 548.192C422.409 548.192 426.329 553.63 431.76 553.63C437.47 554.175 439.918 554.175 442.643 556.349C444.275 556.891 447 555.261 448.075 556.349C449.169 557.436 450.005 559.087 446.463 559.632C447.299 562.077 448.075 564.252 443.718 565.34C439.38 565.883 434.426 566.052 427.622 560.344C423.822 555.723 422.151 552.271 422.409 548.192Z" fill="black"/>
<path d="M435.885 557.558C435.885 557.558 437.195 559.19 440.728 559.19C441.284 558.374 442.137 556.471 438.306 555.657C436.381 556.199 434.218 556.485 435.885 557.558" fill="black"/>
<path d="M428.22 554.026C428.22 554.026 439.094 564.9 443.169 559.192C444.521 560.28 447.244 561.64 443.169 563.27C439.909 563.542 432.574 564.085 428.22 554.026Z" fill="black"/>
<path d="M416.204 501.832C416.204 501.832 419.259 502.241 420.291 503.465C421.303 504.688 424.16 509.783 428.228 508.561C430.271 508.152 430.887 507.132 430.887 507.132C430.887 507.132 437.256 508.969 438.268 515.289C440.073 517.327 441.224 515.289 441.224 515.289C441.224 515.289 437.831 502.65 417.215 499.795C416.204 500.814 416.204 501.832 416.204 501.832Z" fill="black"/>
<path d="M431.098 511.621C431.098 511.621 426.6 511.008 428.245 513.045C430.068 513.658 431.693 514.27 432.723 514.064C433.734 513.862 437.182 512.082 436.786 511.533C436.429 510.984 435.28 509.75 435.28 509.75C435.28 509.75 435.775 512.843 431.098 511.621Z" fill="black"/>
<path d="M449.025 511.929C441.269 519.982 433.553 518.957 424.569 518.754C415.806 517.531 413.751 514.473 408.856 509.751C404.807 493.405 418.646 491.232 418.646 491.232C418.646 491.232 423.964 490.825 434.138 493.067C448.42 496.328 451.059 507.994 451.059 507.994C451.059 507.994 450.656 510.395 449.025 511.929V511.929ZM489.194 505.706C489.194 505.706 483.694 514.273 474.508 511.929C469.633 512.231 468.807 511.929 468.807 511.929C468.807 511.929 466.349 505.798 454.323 507.994C453.718 503.871 448.823 490.009 418.445 487.154C417.014 486.951 410.085 488.377 405.814 494.699C399.911 492.66 389.295 485.523 389.295 485.523C389.295 485.523 383.795 484.912 385.226 490.621C386.233 491.435 384.198 493.474 386.233 491.435C388.268 489.396 388.268 489.396 388.268 489.396C388.268 489.396 402.349 496.939 403.578 497.96C404.585 499.795 401.946 508.77 405.189 511.929C408.473 515.085 417.095 525.891 438.267 522.628C448.017 518.754 450.052 517.611 452.288 514.104C454.746 513.657 461.676 511.618 464.738 515.289C464.536 516.918 459.641 521.405 458.412 525.482C457.606 530.172 459.218 542.2 458.614 542.607C457.989 543.016 453.114 543.218 453.114 543.218C453.114 543.218 450.858 547.865 453.114 548.191C455.753 547.907 459.419 547.094 459.419 547.094C459.419 547.094 461.454 545.869 461.454 543.218C461.454 540.569 461.454 535.063 461.454 535.063C461.454 535.063 462.482 538.53 468.404 540.569C470.64 540.365 471.043 538.895 471.043 538.895C471.043 538.895 465.967 538.53 463.308 532.617C463.308 532.617 461.877 530.375 462.683 527.112C465.141 526.91 469.633 527.112 469.633 527.112C469.633 527.112 469.814 525.073 466.349 524.666C465.141 523.24 465.543 518.754 466.571 517.327C468.001 515.901 468.404 515.492 471.043 515.085C473.702 514.676 482.465 514.654 482.465 516.195C485.93 515.085 490.624 507.994 490.624 507.994L489.194 505.706" fill="black"/>
<path d="M450.61 507.597C451.048 508.455 450.55 509.46 449.595 509.468C449.117 509.47 448.659 509.514 448.401 509.629C447.585 509.991 438.27 495.572 429.573 492.179C426.787 490.215 428.698 490.215 428.698 490.215C428.698 490.215 442.908 492.255 450.61 507.597" fill="black"/>
<path d="M480.018 520.998C480.018 520.998 475.319 520.385 473.894 520.998C473.091 522.018 472.468 522.628 473.894 523.036C475.319 523.445 476.102 523.036 476.524 524.261C476.946 525.483 480.018 520.998 480.018 520.998Z" fill="black"/>
<path d="M438.263 584.631C438.263 584.631 446.179 570.335 455.755 564.218C462.477 558.511 468.186 554.843 469.199 550.151C470.231 545.465 467.984 539.551 470.434 534.659C472.883 529.766 476.204 524.811 478.836 522.601C481.448 520.388 483.128 518.503 483.209 515.877C486.489 513.18 487.764 512.844 489.587 498.37C490.619 485.933 491.226 477.166 490.619 475.943C489.991 474.72 496.733 466.974 500.398 475.943C504.488 484.098 507.12 489.194 502.645 497.757C498.353 506.321 496.329 513.253 496.329 513.253L487.764 520.726C487.764 520.726 482.46 522.629 480.01 529.154C477.56 535.677 481.022 543.017 481.022 543.017L476.528 557.424L457.172 576.656L444.337 587.461L438.263 584.631" fill="black"/>
<path d="M439.322 717.035C439.322 717.035 425.474 705.744 416.942 715.331C416.089 718.527 414.601 731.311 416.942 739.406C417.597 742.175 416.565 745.584 415.692 746.65C414.819 747.715 402.677 765.397 407.796 774.345C412.26 778.819 412.914 778.819 413.748 778.819C414.601 778.819 416.307 783.079 411.843 791.601C412.915 792.027 414.819 794.156 415.672 790.323C416.526 786.488 417.795 779.246 417.795 778.18C418.45 777.754 425.474 778.18 428.033 770.51C429.521 762.627 429.303 758.365 429.521 754.106C431.446 752.401 432.934 750.27 433.35 748.354C433.767 746.435 433.35 741.535 432.934 739.62C433.569 737.063 441.029 733.442 439.322 717.035" fill="black"/>
<path d="M426.317 741.323C426.317 741.323 422.539 743.668 423.053 749.633C424.398 750.699 426.317 752.025 426.317 752.025C426.317 752.025 429.938 751.763 430.373 749.419C430.789 746.226 431.857 741.111 426.317 741.323" fill="white"/>
<path d="M867.459 612.346C867.459 817.936 700.807 984.599 495.215 984.599C289.623 984.599 122.948 817.936 122.948 612.346C122.948 406.756 289.623 240.091 495.215 240.091C700.807 240.091 867.459 406.756 867.459 612.346Z" stroke="white" stroke-width="49.3333" stroke-miterlimit="10"/>
<path d="M1013.68 943.494H997.784C960.983 943.494 931.167 913.67 931.167 876.873V740.922C931.167 704.126 960.983 674.301 997.784 674.301H1013.68C1043.11 674.301 1068.27 693.281 1077.18 719.618C1079.51 726.202 1074.47 732.013 1067.51 732.013H1051.62C1044.66 732.013 1036.91 726.202 1031.47 721.555C1026.84 717.295 1020.64 714.582 1013.68 714.582H997.784C983.458 714.582 971.841 726.202 971.841 740.532V876.487C971.841 890.817 983.458 902.437 997.784 902.437H1013.68C1022.18 902.437 1029.55 898.565 1034.2 892.366C1038.46 886.945 1045.04 880.746 1052.02 880.746H1067.13C1074.09 880.746 1079.51 886.557 1077.59 893.529C1069.84 922.19 1043.87 943.108 1012.89 943.108L1013.68 943.494" fill="white"/>
<path d="M1176.74 943.108C1139.93 943.108 1110.1 913.283 1110.1 876.487V685.921C1110.1 678.949 1115.92 673.14 1122.9 673.14H1137.61C1144.57 673.14 1150.39 678.949 1150.39 685.921V876.487C1150.39 890.818 1162 902.438 1176.34 902.438H1192.22C1206.56 902.438 1218.17 890.818 1218.17 876.487V685.921C1218.17 678.949 1223.99 673.14 1230.95 673.14H1245.69C1252.65 673.14 1258.46 678.949 1258.46 685.921V876.487C1258.46 913.283 1228.64 943.108 1191.83 943.108H1176.74" fill="white"/>
<path d="M1409.14 931.1C1409.14 938.072 1403.34 943.881 1396.35 943.881H1303.39C1296.43 943.881 1290.63 938.072 1290.63 931.1V685.532C1290.63 678.561 1296.43 672.75 1303.39 672.75H1318.11C1325.1 672.75 1330.9 678.561 1330.9 685.532V897.016C1330.9 903.986 1336.72 909.797 1343.68 909.797H1396.35C1403.34 909.797 1409.14 915.606 1409.14 922.578V930.713V931.1" fill="white"/>
<path d="M1476.51 876.874C1476.51 891.206 1488.14 902.826 1502.49 902.826H1518.36C1532.68 902.826 1544.31 891.206 1544.31 876.874V740.922C1544.31 726.589 1532.68 714.969 1518.36 714.969H1502.49C1488.14 714.969 1476.51 726.589 1476.51 740.922V876.874ZM1436.22 876.874V740.922C1436.22 704.125 1466.06 674.301 1502.86 674.301H1518.74C1555.54 674.301 1585.35 704.125 1585.35 740.922V876.874C1585.35 913.671 1555.54 943.495 1518.74 943.495H1502.86C1466.06 943.495 1436.22 913.671 1436.22 876.874Z" fill="white"/>
<path d="M1679.85 902.826H1695.75C1709.7 902.826 1720.93 891.592 1721.32 877.648C1720.15 843.178 1701.17 833.881 1674.82 821.098C1648.5 808.316 1612.48 790.887 1612.48 740.148C1612.48 703.35 1642.29 673.525 1679.1 673.525H1694.97C1727.5 673.525 1754.63 696.767 1760.42 727.363C1761.98 734.338 1756.17 740.148 1749.18 740.148H1734.48C1727.5 740.148 1722.08 733.95 1718.58 727.752C1714.33 719.62 1705.81 714.196 1695.75 714.196H1679.85C1665.52 714.196 1653.92 725.815 1653.92 740.148C1653.92 764.549 1666.69 771.91 1693.04 784.689C1719.36 797.471 1754.63 814.514 1761.2 863.704C1761.98 870.678 1761.98 876.487 1761.98 876.487C1761.98 876.487 1761.98 876.874 1761.98 877.262C1761.98 877.648 1761.98 878.036 1761.98 878.423C1761.98 878.811 1761.98 879.198 1761.98 879.586C1761.98 880.36 1761.98 880.747 1761.98 880.747C1761.98 880.747 1761.59 886.557 1759.66 893.53C1752.31 922.191 1726.35 943.495 1695.36 943.495H1679.49C1646.93 943.495 1619.83 920.255 1614.01 889.656C1612.48 882.684 1618.26 876.874 1625.25 876.874H1639.97C1646.93 876.874 1652.38 883.072 1655.85 889.269C1660.12 897.403 1668.65 902.826 1678.71 902.826H1679.85" fill="white"/>
<path d="M2193.56 735.644C2204.3 718.486 2213.6 703.829 2221.1 691.319C2228.24 678.809 2232.87 669.872 2234.32 664.152C2234.32 663.078 2234.32 662.009 2234.32 661.293C2234.32 659.863 2234.32 659.146 2233.61 658.791C2232.87 658.433 2232.16 658.075 2230.74 658.075C2211.44 658.791 2190.35 671.302 2167.46 695.967C2144.24 720.632 2117.06 753.518 2086.3 794.625L2071.3 813.928H2144.95C2162.12 785.333 2178.21 759.238 2193.56 735.644V735.644ZM2092.76 947.62C2091.68 944.76 2091.34 941.543 2091.34 937.968C2091.34 934.393 2091.68 930.104 2092.76 925.457C2095.97 909.371 2103.13 890.784 2114.22 869.692C2124.94 848.603 2134.94 830.729 2143.53 816.075H2069.5C2057.74 831.444 2045.2 847.174 2031.64 863.259C2018.06 879.345 2004.1 894.357 1989.8 908.3C1975.16 922.24 1960.15 933.679 1945.14 942.616C1930.1 951.552 1914.76 955.842 1899.72 955.842C1887.58 955.842 1877.91 952.981 1871.49 947.62C1864.7 942.257 1860.4 935.467 1858.27 926.53C1857.19 922.597 1856.85 918.666 1856.85 914.376C1856.85 909.014 1857.53 903.295 1858.98 897.576C1861.82 882.919 1868.62 867.907 1879.36 852.892C1889.71 837.879 1902.96 825.367 1919.39 815.002C1935.85 804.992 1954.07 799.989 1974.79 799.989C1986.96 799.989 1995.54 802.849 2000.55 808.924C2004.1 813.214 2005.89 818.219 2005.89 823.937C2005.89 825.725 2005.89 827.513 2005.55 829.657C2002.68 841.454 1996.25 851.463 1985.88 860.399L1985.51 859.684C1995.54 851.463 2001.97 842.168 2004.47 831.444C2004.84 829.3 2005.18 827.155 2005.18 825.011C2005.18 820.005 2003.39 815.359 1999.8 810.355C1996.25 805.707 1989.09 803.204 1979.08 803.204C1962.28 803.204 1946.19 807.852 1931.18 817.504C1916.18 827.155 1903.3 839.667 1892.58 854.321C1881.87 868.978 1874.7 884.349 1871.49 900.435C1870.07 905.797 1869.7 911.159 1869.7 915.805C1869.7 924.385 1871.86 932.607 1876.86 940.828C1881.5 949.049 1891.5 952.981 1906.88 952.981C1929.76 952.981 1958.7 935.824 1993.01 901.864C2015.89 878.987 2040.94 850.39 2067.37 816.075H2060.95L2061.29 813.928H2068.82L2084.54 793.554C2113.14 755.662 2137.44 725.635 2158.17 703.471C2189.63 669.872 2214.65 653.072 2233.24 653.072C2238.24 653.072 2240.74 655.932 2240.74 661.651C2240.74 663.439 2240.37 665.582 2240.03 668.084C2236.82 682.382 2228.24 701.686 2214.28 725.993C2200.01 750.659 2184.63 776.037 2167.83 802.849C2151.03 829.657 2136.02 854.321 2122.44 877.557C2108.85 900.793 2100.97 919.38 2098.13 932.607C2097.42 935.108 2097.05 937.611 2097.05 939.755C2097.05 942.616 2097.76 945.832 2099.21 949.049C2100.63 952.267 2104.18 953.696 2109.19 953.696L2108.85 955.842C2100.26 955.842 2094.89 952.981 2092.76 947.62" fill="white"/>
<path d="M2193.56 735.644C2204.3 718.486 2213.6 703.829 2221.1 691.319C2228.24 678.809 2232.87 669.872 2234.32 664.152C2234.32 663.078 2234.32 662.009 2234.32 661.293C2234.32 659.863 2234.32 659.146 2233.61 658.791C2232.87 658.433 2232.16 658.075 2230.74 658.075C2211.44 658.791 2190.35 671.302 2167.46 695.967C2144.24 720.632 2117.06 753.518 2086.3 794.625L2071.3 813.928H2144.95C2162.12 785.333 2178.21 759.238 2193.56 735.644V735.644ZM2092.76 947.62C2091.68 944.76 2091.34 941.543 2091.34 937.968C2091.34 934.393 2091.68 930.104 2092.76 925.457C2095.97 909.371 2103.13 890.784 2114.22 869.692C2124.94 848.603 2134.94 830.729 2143.53 816.075H2069.5C2057.74 831.444 2045.2 847.174 2031.64 863.259C2018.06 879.345 2004.1 894.357 1989.8 908.3C1975.16 922.24 1960.15 933.679 1945.14 942.616C1930.1 951.552 1914.76 955.842 1899.72 955.842C1887.58 955.842 1877.91 952.981 1871.49 947.62C1864.7 942.257 1860.4 935.467 1858.27 926.53C1857.19 922.597 1856.85 918.666 1856.85 914.376C1856.85 909.014 1857.53 903.295 1858.98 897.576C1861.82 882.919 1868.62 867.907 1879.36 852.892C1889.71 837.879 1902.96 825.367 1919.39 815.002C1935.85 804.992 1954.07 799.989 1974.79 799.989C1986.96 799.989 1995.54 802.849 2000.55 808.924C2004.1 813.214 2005.89 818.219 2005.89 823.937C2005.89 825.725 2005.89 827.513 2005.55 829.657C2002.68 841.454 1996.25 851.463 1985.88 860.399L1985.51 859.684C1995.54 851.463 2001.97 842.168 2004.47 831.444C2004.84 829.3 2005.18 827.155 2005.18 825.011C2005.18 820.005 2003.39 815.359 1999.8 810.355C1996.25 805.707 1989.09 803.204 1979.08 803.204C1962.28 803.204 1946.19 807.852 1931.18 817.504C1916.18 827.155 1903.3 839.667 1892.58 854.321C1881.87 868.978 1874.7 884.349 1871.49 900.435C1870.07 905.797 1869.7 911.159 1869.7 915.805C1869.7 924.385 1871.86 932.607 1876.86 940.828C1881.5 949.049 1891.5 952.981 1906.88 952.981C1929.76 952.981 1958.7 935.824 1993.01 901.864C2015.89 878.987 2040.94 850.39 2067.37 816.075H2060.95L2061.29 813.928H2068.82L2084.54 793.554C2113.14 755.662 2137.44 725.635 2158.17 703.471C2189.63 669.872 2214.65 653.072 2233.24 653.072C2238.24 653.072 2240.74 655.932 2240.74 661.651C2240.74 663.439 2240.37 665.582 2240.03 668.084C2236.82 682.382 2228.24 701.686 2214.28 725.993C2200.01 750.659 2184.63 776.037 2167.83 802.849C2151.03 829.657 2136.02 854.321 2122.44 877.557C2108.85 900.793 2100.97 919.38 2098.13 932.607C2097.42 935.108 2097.05 937.611 2097.05 939.755C2097.05 942.616 2097.76 945.832 2099.21 949.049C2100.63 952.267 2104.18 953.696 2109.19 953.696L2108.85 955.842C2100.26 955.842 2094.89 952.981 2092.76 947.62V947.62Z" stroke="white" stroke-width="9.33333" stroke-miterlimit="10"/>
<path d="M2192.49 922.24C2202.14 913.302 2211.79 902.223 2221.09 889.711C2230.74 877.199 2238.61 865.404 2245.41 853.966C2252.17 842.526 2256.11 834.304 2257.19 829.657C2257.57 827.514 2257.92 825.367 2257.92 823.223C2257.92 820.005 2257.19 816.789 2255.76 813.572C2254.33 810.355 2250.39 808.924 2244.68 808.924C2237.19 808.924 2228.96 813.214 2219.66 821.793C2210.71 830.372 2201.79 840.739 2193.22 852.892C2184.61 865.404 2177.12 877.557 2171.06 889.711C2164.61 901.864 2161.03 911.516 2159.6 918.666C2158.9 921.524 2158.52 924.027 2158.52 926.172C2158.52 932.964 2161.76 936.181 2167.82 936.181C2174.61 936.181 2182.84 931.533 2192.49 922.24V922.24ZM2148.52 924.743C2148.52 920.809 2149.25 916.163 2150.33 910.801C2153.19 896.145 2159.98 880.775 2170.68 863.974C2181.06 847.53 2192.84 833.589 2206.07 821.793C2219.31 809.997 2231.44 804.278 2242.55 804.278C2250.04 804.278 2255.06 806.78 2257.57 811.427C2258.99 813.928 2259.69 817.145 2259.69 821.079C2259.69 823.58 2259.34 826.44 2258.61 829.657L2258.26 831.444C2271.5 806.78 2288.3 778.539 2309.03 746.012C2348.36 684.171 2370.52 653.072 2376.23 653.072C2378.01 653.072 2379.44 653.786 2380.52 654.856C2381.25 655.929 2381.6 657.002 2381.6 658.431V659.863C2381.25 660.936 2376.93 667.726 2369.09 680.237C2314.04 763.526 2274.71 825.726 2250.77 866.833C2235.03 893.643 2225.76 912.947 2223.25 925.1C2222.87 926.887 2222.52 928.675 2222.52 930.104C2222.52 934.036 2224.3 936.181 2227.53 936.181C2233.25 936.181 2240.77 931.892 2250.04 923.312C2258.99 914.733 2267.92 905.081 2276.49 894C2285.09 883.276 2291.85 873.983 2297.22 865.76H2297.6V866.119C2292.93 872.911 2286.52 882.204 2277.92 893.643C2269.34 905.439 2260.04 915.805 2250.77 925.457C2241.09 935.108 2232.9 940.113 2225.76 940.113C2220.36 940.113 2217.5 936.896 2217.5 930.104C2217.5 927.601 2218.23 924.385 2218.93 920.809C2221.82 906.869 2228.58 888.996 2239.69 867.191C2207.85 917.592 2182.49 942.616 2163.53 942.616C2153.53 942.616 2148.52 936.539 2148.52 924.743Z" fill="white"/>
<path d="M2192.49 922.24C2202.14 913.302 2211.79 902.223 2221.09 889.711C2230.74 877.199 2238.61 865.404 2245.41 853.966C2252.17 842.526 2256.11 834.304 2257.19 829.657C2257.57 827.514 2257.92 825.367 2257.92 823.223C2257.92 820.005 2257.19 816.789 2255.76 813.572C2254.33 810.355 2250.39 808.924 2244.68 808.924C2237.19 808.924 2228.96 813.214 2219.66 821.793C2210.71 830.372 2201.79 840.739 2193.22 852.892C2184.61 865.404 2177.12 877.557 2171.06 889.711C2164.61 901.864 2161.03 911.516 2159.6 918.666C2158.9 921.524 2158.52 924.027 2158.52 926.172C2158.52 932.964 2161.76 936.181 2167.82 936.181C2174.61 936.181 2182.84 931.533 2192.49 922.24V922.24ZM2148.52 924.743C2148.52 920.809 2149.25 916.163 2150.33 910.801C2153.19 896.145 2159.98 880.775 2170.68 863.974C2181.06 847.53 2192.84 833.589 2206.07 821.793C2219.31 809.997 2231.44 804.278 2242.55 804.278C2250.04 804.278 2255.06 806.78 2257.57 811.427C2258.99 813.928 2259.69 817.145 2259.69 821.079C2259.69 823.58 2259.34 826.44 2258.61 829.657L2258.26 831.444C2271.5 806.78 2288.3 778.539 2309.03 746.012C2348.36 684.171 2370.52 653.072 2376.23 653.072C2378.01 653.072 2379.44 653.786 2380.52 654.856C2381.25 655.929 2381.6 657.002 2381.6 658.431V659.863C2381.25 660.936 2376.93 667.726 2369.09 680.237C2314.04 763.526 2274.71 825.726 2250.77 866.833C2235.03 893.643 2225.76 912.947 2223.25 925.1C2222.87 926.887 2222.52 928.675 2222.52 930.104C2222.52 934.036 2224.3 936.181 2227.53 936.181C2233.25 936.181 2240.77 931.892 2250.04 923.312C2258.99 914.733 2267.92 905.081 2276.49 894C2285.09 883.276 2291.85 873.983 2297.22 865.76H2297.6V866.119C2292.93 872.911 2286.52 882.204 2277.92 893.643C2269.34 905.439 2260.04 915.805 2250.77 925.457C2241.09 935.108 2232.9 940.113 2225.76 940.113C2220.36 940.113 2217.5 936.896 2217.5 930.104C2217.5 927.601 2218.23 924.385 2218.93 920.809C2221.82 906.869 2228.58 888.996 2239.69 867.191C2207.85 917.592 2182.49 942.616 2163.53 942.616C2153.53 942.616 2148.52 936.539 2148.52 924.743Z" stroke="white" stroke-width="9.33332" stroke-miterlimit="10"/>
<path d="M2315.83 925.457C2323.69 918.665 2331.2 910.444 2339.05 900.434C2346.56 890.783 2353.71 880.774 2360.16 870.765C2368.02 854.68 2375.88 839.666 2384.47 825.725C2384.47 824.296 2384.47 822.865 2384.47 821.793C2384.47 812.856 2380.15 808.566 2371.24 808.566C2363.74 808.566 2355.5 812.856 2346.21 821.436C2336.91 830.014 2328.35 840.381 2319.76 852.534C2311.17 865.045 2304.02 877.199 2297.95 889.353C2291.53 901.508 2287.6 911.159 2286.16 918.308C2285.43 920.809 2285.08 923.312 2285.08 925.457C2285.08 932.248 2288.3 935.824 2294.72 935.824C2301.17 935.824 2307.98 932.248 2315.83 925.457V925.457ZM2277.22 932.248C2276.14 929.03 2275.79 925.457 2275.79 921.883C2275.79 918.308 2276.14 914.733 2277.22 910.801C2280.1 895.788 2286.87 880.059 2297.6 863.258C2308.33 846.814 2320.11 832.875 2333.34 821.078C2346.21 809.638 2358.37 803.92 2369.81 803.92C2380.54 803.92 2386.25 808.923 2386.25 819.29V822.508C2390.89 815.001 2395.16 808.209 2399.13 802.847C2401.26 800.345 2403.4 798.914 2406.28 798.914C2408.04 798.914 2409.47 799.63 2410.56 801.06C2411.26 802.133 2411.64 803.204 2411.64 804.635V806.065C2410.21 808.923 2403.76 819.647 2392.32 838.237C2381.94 854.68 2371.95 871.123 2362.65 887.566C2353.01 904.009 2347.29 916.877 2345.5 926.529C2344.77 928.316 2344.77 930.104 2344.77 931.177C2344.77 934.393 2345.85 936.181 2348.7 936.181C2353.71 936.181 2360.86 931.533 2369.81 921.883C2378.37 912.23 2386.96 901.864 2394.85 890.783C2402.67 879.701 2408.42 871.48 2411.96 865.759L2412.7 866.118C2380.89 915.805 2359.08 940.469 2347.29 940.469C2341.93 940.469 2339.05 937.253 2339.05 930.463C2339.05 927.96 2339.4 925.1 2340.49 921.524C2342.63 911.159 2347.29 898.29 2354.8 882.204C2329.41 920.453 2308.33 940.469 2291.18 942.257C2283.29 942.257 2278.66 939.04 2277.22 932.248" fill="white"/>
<path d="M2315.83 925.457C2323.69 918.665 2331.2 910.444 2339.05 900.434C2346.56 890.783 2353.71 880.774 2360.16 870.765C2368.02 854.68 2375.88 839.666 2384.47 825.725C2384.47 824.296 2384.47 822.865 2384.47 821.793C2384.47 812.856 2380.15 808.566 2371.24 808.566C2363.74 808.566 2355.5 812.856 2346.21 821.436C2336.91 830.014 2328.35 840.381 2319.76 852.534C2311.17 865.045 2304.02 877.199 2297.95 889.353C2291.53 901.508 2287.6 911.159 2286.16 918.308C2285.43 920.809 2285.08 923.312 2285.08 925.457C2285.08 932.248 2288.3 935.824 2294.72 935.824C2301.17 935.824 2307.98 932.248 2315.83 925.457V925.457ZM2277.22 932.248C2276.14 929.03 2275.79 925.457 2275.79 921.883C2275.79 918.308 2276.14 914.733 2277.22 910.801C2280.1 895.788 2286.87 880.059 2297.6 863.258C2308.33 846.814 2320.11 832.875 2333.34 821.078C2346.21 809.638 2358.37 803.92 2369.81 803.92C2380.54 803.92 2386.25 808.923 2386.25 819.29V822.508C2390.89 815.001 2395.16 808.209 2399.13 802.847C2401.26 800.345 2403.4 798.914 2406.28 798.914C2408.04 798.914 2409.47 799.63 2410.56 801.06C2411.26 802.133 2411.64 803.204 2411.64 804.635V806.065C2410.21 808.923 2403.76 819.647 2392.32 838.237C2381.94 854.68 2371.95 871.123 2362.65 887.566C2353.01 904.009 2347.29 916.877 2345.5 926.529C2344.77 928.316 2344.77 930.104 2344.77 931.177C2344.77 934.393 2345.85 936.181 2348.7 936.181C2353.71 936.181 2360.86 931.533 2369.81 921.883C2378.37 912.23 2386.96 901.864 2394.85 890.783C2402.67 879.701 2408.42 871.48 2411.96 865.759L2412.7 866.118C2380.89 915.805 2359.08 940.469 2347.29 940.469C2341.93 940.469 2339.05 937.253 2339.05 930.463C2339.05 927.96 2339.4 925.1 2340.49 921.524C2342.63 911.159 2347.29 898.29 2354.8 882.204C2329.41 920.453 2308.33 940.469 2291.18 942.257C2283.29 942.257 2278.66 939.04 2277.22 932.248V932.248Z" stroke="white" stroke-width="9.33334" stroke-miterlimit="10"/>
<path d="M683.76 212.285C683.76 212.285 746.847 230.951 777.827 274.95C839.673 200.283 887.497 150.94 887.497 150.94L793.994 84.3658L683.76 212.285" fill="white"/>
<path d="M1014.34 584.724C1014.34 591.697 1008.52 597.506 1001.57 597.506H986.849C979.869 597.506 974.076 591.697 974.076 584.724V339.16C974.076 332.187 979.869 326.375 986.849 326.375H1063.91C1070.89 326.375 1076.71 332.187 1076.71 339.16V353.489C1076.71 360.462 1070.89 366.271 1063.91 366.271H1027.52C1020.54 366.271 1014.74 372.081 1014.74 379.051V428.244C1014.74 435.216 1020.54 441.025 1027.52 441.025H1063.91C1070.89 441.025 1076.71 446.835 1076.71 453.807V468.526C1076.71 475.497 1070.89 481.308 1063.91 481.308H1027.52C1020.54 481.308 1014.74 487.118 1014.74 494.09V583.564L1014.34 584.724" fill="white"/>
<path d="M1165.39 401.517C1163.86 394.546 1161.53 394.546 1159.99 401.517L1142.56 480.533C1141 487.505 1145.66 492.539 1152.62 490.989C1159.2 489.442 1165.39 487.892 1171.22 485.955C1177.79 483.632 1181.66 475.497 1180.12 468.524L1165.39 401.906V401.517ZM1142.93 534.371C1135.96 535.532 1128.99 541.731 1127.43 548.703L1119.7 583.174C1118.16 590.147 1111.17 595.959 1104.2 595.959H1087.56C1080.57 595.959 1075.93 590.147 1077.49 583.174L1131.7 337.222C1133.26 330.249 1140.23 324.439 1147.19 324.439H1177.42C1184.39 324.439 1191.36 330.249 1192.92 337.222L1247.15 583.174C1248.68 590.147 1244.02 595.959 1237.05 595.959H1220.39C1213.42 595.959 1206.46 590.147 1204.92 583.174L1194.06 534.758C1192.52 527.786 1185.93 524.302 1178.96 526.625C1168.12 530.111 1156.12 532.822 1142.56 534.758L1142.93 534.371" fill="white"/>
<path d="M1327.68 365.885C1320.7 365.885 1314.89 371.695 1314.89 378.667V428.633C1314.89 435.604 1320.31 439.866 1327.29 437.542C1352.86 429.405 1378.41 415.462 1378.41 394.547V388.738C1378.41 375.956 1367.96 365.499 1355.2 365.499H1327.68V365.885ZM1374.94 471.238C1368.74 467.752 1357.51 469.689 1350.92 472.4C1343.16 475.499 1335.05 478.212 1327.29 480.536C1320.31 482.471 1314.51 489.442 1314.51 496.414V544.056C1314.51 551.028 1320.31 556.837 1327.29 556.837H1357.51C1377.24 556.837 1393.53 540.57 1393.53 520.815V502.999C1393.53 489.442 1386.17 477.823 1374.94 471.624V471.238ZM1383.08 592.86C1376.49 595.187 1364.87 595.96 1357.9 595.96H1287.4C1280.43 595.96 1274.62 590.15 1274.62 583.176V337.61C1274.62 330.638 1280.43 324.828 1287.4 324.828H1355.59C1390.81 324.828 1419.49 353.49 1419.49 388.738V394.547C1419.49 407.715 1415.6 419.337 1409.41 429.405C1405.54 435.604 1406.32 442.965 1411.35 447.999C1425.69 461.942 1434.59 481.309 1434.59 502.613V520.428C1434.59 553.738 1412.91 582.014 1383.08 592.471V592.86" fill="white"/>
<path d="M1514 365.497C1507.04 365.497 1501.22 371.306 1501.22 378.277V449.546C1501.22 456.517 1507.04 461.552 1514 460.004C1537.25 454.581 1561.65 443.349 1561.65 420.109V391.833C1561.65 377.503 1550.03 365.882 1535.71 365.882H1514.38L1514 365.497ZM1488.84 596.344H1474.12C1467.13 596.344 1461.33 590.535 1461.33 583.564V337.995C1461.33 331.024 1467.13 325.213 1474.12 325.213H1538.41C1574.03 326.375 1602.7 355.813 1602.7 391.833V420.109C1602.7 446.448 1590.32 465.425 1572.49 478.596C1566.7 482.856 1563.57 490.99 1565.91 497.575L1596.12 583.949C1598.44 590.535 1594.55 595.958 1587.6 595.958H1570.55C1563.57 595.958 1555.83 590.535 1553.51 583.949L1528.35 511.906C1526 505.323 1519.04 501.059 1512.84 502.222C1506.64 503.384 1501.6 509.97 1501.6 516.941V583.564C1501.6 590.535 1495.8 596.344 1488.84 596.344" fill="white"/>
<path d="M1656.91 596.346H1642.19C1635.23 596.346 1629.43 590.536 1629.43 583.563V337.996C1629.43 331.026 1635.23 325.216 1642.19 325.216H1656.91C1663.9 325.216 1669.7 331.026 1669.7 337.996V583.563C1669.7 590.536 1663.9 596.346 1656.91 596.346Z" fill="white"/>
<path d="M1779.69 596.347H1763.82C1727.02 596.347 1697.2 566.521 1697.2 529.722V393.773C1697.2 356.975 1727.02 327.152 1763.82 327.152H1779.69C1809.12 327.152 1834.3 346.13 1843.21 372.467C1845.55 379.052 1840.51 384.863 1833.54 384.863H1817.66C1810.69 384.863 1802.94 379.052 1797.51 374.405C1792.87 370.145 1786.67 367.433 1779.69 367.433H1763.82C1749.5 367.433 1737.86 379.052 1737.86 393.383V529.335C1737.86 543.667 1749.5 555.286 1763.82 555.286H1779.69C1788.23 555.286 1795.57 551.415 1800.21 545.217C1804.48 539.793 1811.08 533.598 1818.03 533.598H1833.14C1840.11 533.598 1845.55 539.406 1843.61 546.381C1835.87 575.041 1809.92 595.96 1778.93 595.96L1779.69 596.347" fill="white"/>
<path d="M1950.15 401.518C1948.58 394.545 1946.27 394.545 1944.73 401.518L1927.29 480.532C1925.75 487.505 1930.4 492.538 1937.35 490.99C1943.93 489.441 1950.15 487.89 1955.95 485.956C1962.52 483.632 1966.4 475.495 1964.86 468.525L1950.15 401.903V401.518ZM1927.67 534.371C1920.71 535.532 1913.72 541.729 1912.19 548.702L1904.43 583.174C1902.89 590.147 1895.9 595.957 1888.94 595.957H1872.3C1865.31 595.957 1860.66 590.147 1862.2 583.174L1916.42 337.22C1917.99 330.247 1924.95 324.437 1931.94 324.437H1962.14C1969.13 324.437 1976.08 330.247 1977.62 337.22L2031.87 583.174C2033.41 590.147 2028.76 595.957 2021.8 595.957H2005.13C1998.17 595.957 1991.18 590.147 1989.64 583.174L1978.81 534.759C1977.24 527.786 1970.66 524.301 1963.68 526.625C1952.84 530.11 1940.85 532.823 1927.29 534.759L1927.67 534.371" fill="white"/>
<path d="M2265.03 402.294C2265.03 381.766 2248.36 365.108 2227.84 365.108H2207.31C2200.34 365.108 2194.52 370.921 2194.52 377.89V546.767C2194.52 553.74 2200.34 559.549 2207.31 559.549H2227.84C2248.36 559.549 2265.03 542.894 2265.03 522.363V402.682V402.294ZM2265.03 590.922C2258.81 594.41 2247.61 596.347 2240.63 596.347H2166.65C2159.67 596.347 2153.85 590.534 2153.85 583.564V337.999C2153.85 331.026 2159.67 325.217 2166.65 325.217H2232.87C2273.54 327.926 2306.07 361.623 2306.07 403.067V522.754C2306.07 552.191 2289.81 577.752 2265.78 590.922H2265.03" fill="white"/>
<path d="M2435.84 584.724C2435.84 591.695 2430.04 597.508 2423.04 597.508H2345.99C2339 597.508 2333.19 591.695 2333.19 584.724V339.158C2333.19 332.187 2339 326.374 2345.99 326.374H2423.04C2430.04 326.374 2435.84 332.187 2435.84 339.158V353.487C2435.84 360.461 2430.04 366.271 2423.04 366.271H2386.64C2379.67 366.271 2373.87 372.08 2373.87 379.051V428.244C2373.87 435.215 2379.67 441.024 2386.64 441.024H2423.04C2430.04 441.024 2435.84 446.834 2435.84 453.807V468.525C2435.84 475.496 2430.04 481.309 2423.04 481.309H2386.64C2379.67 481.309 2373.87 487.118 2373.87 494.089V547.542C2373.87 554.512 2379.67 560.322 2386.64 560.322H2423.04C2430.04 560.322 2435.84 566.131 2435.84 573.105V583.563V584.724" fill="white"/>
<path d="M1183.99 315.831L1201.81 290.074C1204.39 286.371 1203.11 280.921 1198.9 278.02L1188.84 271.092C1184.65 268.193 1178.91 268.809 1176.33 272.512L1148.57 311.91L1183.99 315.831" fill="white"/>
<path d="M536.161 960.714L541.056 960.952C541.056 960.952 545.501 841.314 544.395 841.261C543.289 841.208 539.725 841.036 539.725 841.036L536.161 960.714" fill="black"/>
</svg>
