<svg width="700" height="700" viewBox="0 0 700 700" fill="none" xmlns="http://www.w3.org/2000/svg">
<circle cx="350" cy="350" r="350" fill="white"/>
<g clip-path="url(#clip0)">
<path d="M599.953 337.737L576.989 320.117L594.609 297.153C600.797 289.09 597.651 277.352 588.261 273.462L561.52 262.385L572.596 235.644C576.486 226.254 570.41 215.729 560.333 214.403L531.636 210.626L535.414 181.928C536.741 171.852 528.148 163.258 518.071 164.585L505.809 166.199V533.8L518.071 535.414C528.148 536.741 536.741 528.148 535.414 518.071L531.636 489.374L560.333 485.597C570.41 484.27 576.486 473.746 572.596 464.356L561.52 437.615L588.261 426.538C597.651 422.649 600.797 410.912 594.609 402.847L576.989 379.883L599.953 362.263C608.016 356.076 608.016 343.924 599.953 337.737Z" fill="#CB9D12"/>
<path d="M485.597 560.333L489.374 531.636L505.809 533.8C510.651 530.929 513.813 524.842 513.029 518.071L509.707 489.374L534.939 485.597C543.8 484.27 549.142 473.746 545.722 464.356L535.983 437.615L559.496 426.538C567.752 422.649 570.517 410.912 565.077 402.847L549.584 379.883L569.776 362.263C576.865 356.076 576.865 343.924 569.776 337.737L549.584 320.117L565.077 297.153C570.517 289.09 567.751 277.352 559.496 273.462L535.983 262.385L545.722 235.644C549.142 226.254 543.8 215.729 534.939 214.403L509.707 210.626L513.029 181.928C513.813 175.157 510.651 169.071 505.808 166.199L489.373 168.364L489.048 165.893L485.594 139.667C484.268 129.59 473.744 123.515 464.354 127.404L437.613 138.48L426.536 111.739C422.646 102.349 410.908 99.2035 402.845 105.391L379.881 123.011L362.263 100.047C356.076 91.9839 343.924 91.9839 337.737 100.047L320.117 123.011L297.153 105.391C289.09 99.2035 277.352 102.349 273.462 111.739L262.385 138.48L235.644 127.404C226.254 123.515 215.729 129.591 214.403 139.667L210.626 168.364L181.929 164.586C171.852 163.259 163.259 171.852 164.586 181.929L168.364 210.626L139.667 214.403C129.591 215.73 123.514 226.254 127.404 235.644L138.48 262.385L111.739 273.462C102.349 277.352 99.2035 289.088 105.391 297.153L123.011 320.117L100.047 337.737C91.9839 343.924 91.9839 356.076 100.047 362.263L123.011 379.883L105.391 402.847C99.2035 410.91 102.349 422.648 111.739 426.538L138.48 437.615L127.404 464.356C123.514 473.746 129.59 484.271 139.667 485.597L168.364 489.374L164.586 518.071C163.259 528.148 171.852 536.741 181.929 535.414L210.626 531.636L214.403 560.333C215.73 570.409 226.254 576.485 235.644 572.596L262.385 561.52L273.462 588.261C277.351 597.651 289.088 600.797 297.153 594.609L320.117 576.989L337.737 599.953C343.924 608.016 356.076 608.016 362.263 599.953L379.883 576.989L402.847 594.609C410.91 600.797 422.648 597.651 426.538 588.261L437.615 561.52L464.356 572.596C473.746 576.486 484.27 570.41 485.597 560.333Z" fill="#E3B015"/>
<path d="M426.487 364.676C392.35 364.676 364.676 392.35 364.676 426.487C364.676 460.624 392.35 488.298 426.487 488.298C460.624 488.298 488.298 460.624 488.298 426.487C488.298 392.35 460.624 364.676 426.487 364.676ZM426.487 457.392C409.419 457.392 395.581 443.556 395.581 426.487C395.581 409.419 409.419 395.581 426.487 395.581C443.556 395.581 457.392 409.419 457.392 426.487C457.392 443.556 443.556 457.392 426.487 457.392Z" fill="white"/>
<path d="M273.513 211.702C239.376 211.702 211.702 239.376 211.702 273.513C211.702 307.65 239.376 335.324 273.513 335.324C307.65 335.324 335.324 307.65 335.324 273.513C335.324 239.376 307.65 211.702 273.513 211.702ZM273.513 304.419C256.445 304.419 242.608 290.582 242.608 273.513C242.608 256.445 256.445 242.608 273.513 242.608C290.582 242.608 304.419 256.445 304.419 273.513C304.419 290.582 290.581 304.419 273.513 304.419Z" fill="white"/>
<path d="M237.455 462.545C231.42 456.51 231.42 446.727 237.455 440.692L440.692 237.455C446.727 231.42 456.51 231.42 462.545 237.455C468.58 243.49 468.58 253.273 462.545 259.308L259.308 462.545C253.273 468.58 243.49 468.58 237.455 462.545Z" fill="white"/>
</g>
<defs>
<clipPath id="clip0">
<rect width="512" height="512" fill="white" transform="translate(94 94)"/>
</clipPath>
</defs>
</svg>
