<svg width="700" height="700" viewBox="0 0 700 700" fill="none" xmlns="http://www.w3.org/2000/svg">
<circle cx="350" cy="350" r="350" fill="white"/>
<g clip-path="url(#clip0)">
<path d="M469.627 333.061H441.041C436.774 333.061 433.315 329.603 433.315 325.335C433.315 321.068 436.773 317.609 441.041 317.609H468.649V284.932C468.649 280.665 472.107 277.206 476.375 277.206C480.643 277.206 484.101 280.664 484.101 284.932V318.587C484.1 326.569 477.608 333.061 469.627 333.061Z" fill="#454045"/>
<g filter="url(#filter0_d)">
<path d="M508.046 563.604C508.046 574.869 498.914 584.001 487.649 584.001H241.397C230.132 584.001 221 574.869 221 563.604V462.327C221 405.739 266.874 359.866 323.461 359.866H405.585C462.173 359.866 508.046 405.74 508.046 462.327V563.604Z" fill="#E3B015"/>
</g>
<g filter="url(#filter1_d)">
<path d="M508.046 462.327C508.046 405.739 462.172 359.866 405.585 359.866H375.478C432.066 359.866 477.939 405.739 477.939 462.327V563.604C477.939 574.869 468.807 584.001 457.542 584.001H487.649C498.914 584.001 508.046 574.869 508.046 563.604V462.327Z" fill="#D5A513"/>
</g>
<path d="M324.34 584.001H404.706L364.523 393.628L324.34 584.001Z" fill="#544F57"/>
<path d="M364.523 393.628L355.829 434.818L387.318 584.001H404.706L364.523 393.628Z" fill="#454045"/>
<path d="M399.335 443.05L366.639 475.746C365.47 476.915 363.575 476.915 362.407 475.746L329.711 443.05L364.523 408.238L399.335 443.05Z" fill="#AFAAB4"/>
<path d="M364.523 431.572L415.601 305.046H313.445L364.523 431.572Z" fill="#544F57"/>
<path d="M364.523 431.572L330.471 347.222L308.009 365.629C301.275 371.147 298.993 380.448 302.407 388.457L329.504 452.014C329.859 452.847 330.573 453.475 331.445 453.721C332.317 453.967 333.253 453.805 333.991 453.28L364.523 431.572Z" fill="#F6F1F1"/>
<path d="M364.523 431.572L398.575 347.222L421.037 365.629C427.771 371.147 430.053 380.448 426.639 388.457L399.542 452.014C399.187 452.847 398.473 453.475 397.601 453.721C396.729 453.967 395.793 453.805 395.055 453.28L364.523 431.572Z" fill="#F6F1F1"/>
<path d="M476.69 485.507H422.529C419.447 485.507 416.949 483.009 416.949 479.927V465.733C416.949 462.651 419.447 460.153 422.529 460.153H476.69C479.772 460.153 482.27 462.651 482.27 465.733V479.927C482.27 483.009 479.772 485.507 476.69 485.507Z" fill="#F6F1F1"/>
<path d="M422.17 101.521C421.146 101.43 420.238 100.828 419.756 99.9199C419.274 99.0119 419.282 97.9219 419.781 97.0229L424.885 87.8199C429.829 78.9049 420.598 68.8189 411.281 72.9569L361.786 94.9409C352.398 99.1109 342.24 101.265 331.967 101.265H312.348C278.525 101.265 251.106 128.684 251.106 162.507V260.549H477.94V162.508C477.94 130.531 453.428 104.29 422.17 101.521Z" fill="#544F57"/>
<path d="M422.169 101.521C421.145 101.43 420.237 100.828 419.755 99.9199C419.273 99.0119 419.281 97.9219 419.78 97.0229L424.884 87.8199C429.828 78.9049 420.597 68.8189 411.28 72.9569L402.566 76.8279C404.599 79.8779 405.121 83.9579 402.979 87.8199L402.934 87.9009C399.577 93.9539 402.973 101.426 409.688 103.104C436.312 109.755 456.035 133.824 456.035 162.508V260.55H477.94V162.508C477.94 130.531 453.428 104.29 422.169 101.521Z" fill="#454045"/>
<path d="M274.578 287.777H266.95C255.396 287.777 246.029 278.411 246.029 266.856V262.516C246.029 250.962 255.395 241.595 266.95 241.595H274.578V287.777Z" fill="#E2A770"/>
<path d="M454.468 296.192H467.19C482.086 296.192 494.162 284.116 494.162 269.22V260.153C494.162 245.257 482.086 233.181 467.19 233.181H454.468V296.192Z" fill="#E3B015"/>
<path d="M467.19 233.181H454.468V233.481C467.455 235.424 477.415 246.624 477.415 260.152V269.219C477.415 282.747 467.455 293.947 454.468 295.891V296.191H467.19C482.086 296.191 494.162 284.116 494.162 269.22V260.153C494.162 245.257 482.086 233.181 467.19 233.181Z" fill="#D4A513"/>
<path d="M456.528 283.657C456.528 334.47 415.336 375.662 364.523 375.662C313.71 375.662 272.518 334.47 272.518 283.657V204.056C272.518 203.233 272.968 202.475 273.69 202.081C274.413 201.687 275.292 201.721 275.984 202.166C335.009 240.125 394.035 240.125 453.06 202.166C453.752 201.721 454.632 201.689 455.354 202.083C456.076 202.477 456.527 203.233 456.527 204.056L456.528 283.657Z" fill="#F1D0A5"/>
<path d="M435.653 212.255C382.43 239.753 329.208 236.393 275.985 202.166C275.293 201.721 274.413 201.689 273.691 202.083C272.969 202.477 272.518 203.233 272.518 204.056V217.399C321.07 249.845 369.622 256.604 418.174 237.682C426.575 234.408 435.653 240.496 435.653 249.512V283.657C435.653 330.94 399.983 369.886 354.086 375.069C357.512 375.456 360.994 375.662 364.524 375.662C415.337 375.662 456.529 334.47 456.529 283.657V204.056C456.529 203.234 456.08 202.477 455.359 202.082C454.637 201.687 453.757 201.717 453.065 202.162C447.223 205.914 441.333 209.32 435.653 212.255Z" fill="#F1B986"/>
<path d="M406.393 289.372C402.126 289.372 398.667 285.914 398.667 281.646V272.304C398.667 268.037 402.125 264.578 406.393 264.578C410.661 264.578 414.119 268.036 414.119 272.304V281.646C414.119 285.914 410.66 289.372 406.393 289.372Z" fill="#454045"/>
<path d="M322.653 289.372C318.386 289.372 314.927 285.914 314.927 281.646V272.304C314.927 268.037 318.385 264.578 322.653 264.578C326.92 264.578 330.379 268.036 330.379 272.304V281.646C330.379 285.914 326.92 289.372 322.653 289.372Z" fill="#454045"/>
<path d="M364.524 333.106C357.102 333.106 349.68 330.368 342.464 324.892C339.066 322.313 338.401 317.466 340.98 314.067C343.56 310.669 348.404 310.005 351.805 312.583C360.603 319.26 368.447 319.258 377.241 312.583C380.64 310.003 385.487 310.668 388.066 314.067C390.645 317.466 389.981 322.312 386.582 324.892C379.366 330.368 371.945 333.106 364.524 333.106Z" fill="#DA4A54"/>
<path d="M440.894 337.124H414.025C408.255 337.124 403.577 332.446 403.577 326.676V323.316C403.577 317.546 408.255 312.868 414.025 312.868H440.894C446.664 312.868 451.342 317.546 451.342 323.316V326.676C451.342 332.446 446.664 337.124 440.894 337.124Z" fill="#544F57"/>
</g>
<defs>
<filter id="filter0_d" x="217" y="359.866" width="295.046" height="232.135" filterUnits="userSpaceOnUse" color-interpolation-filters="sRGB">
<feFlood flood-opacity="0" result="BackgroundImageFix"/>
<feColorMatrix in="SourceAlpha" type="matrix" values="0 0 0 0 0 0 0 0 0 0 0 0 0 0 0 0 0 0 127 0"/>
<feOffset dy="4"/>
<feGaussianBlur stdDeviation="2"/>
<feColorMatrix type="matrix" values="0 0 0 0 0 0 0 0 0 0 0 0 0 0 0 0 0 0 0.25 0"/>
<feBlend mode="normal" in2="BackgroundImageFix" result="effect1_dropShadow"/>
<feBlend mode="normal" in="SourceGraphic" in2="effect1_dropShadow" result="shape"/>
</filter>
<filter id="filter1_d" x="371.478" y="359.866" width="140.568" height="232.135" filterUnits="userSpaceOnUse" color-interpolation-filters="sRGB">
<feFlood flood-opacity="0" result="BackgroundImageFix"/>
<feColorMatrix in="SourceAlpha" type="matrix" values="0 0 0 0 0 0 0 0 0 0 0 0 0 0 0 0 0 0 127 0"/>
<feOffset dy="4"/>
<feGaussianBlur stdDeviation="2"/>
<feColorMatrix type="matrix" values="0 0 0 0 0 0 0 0 0 0 0 0 0 0 0 0 0 0 0.25 0"/>
<feBlend mode="normal" in2="BackgroundImageFix" result="effect1_dropShadow"/>
<feBlend mode="normal" in="SourceGraphic" in2="effect1_dropShadow" result="shape"/>
</filter>
<clipPath id="clip0">
<rect width="512" height="512" fill="white" transform="translate(152 72)"/>
</clipPath>
</defs>
</svg>
